<?xml version="1.0" standalone="no"?>
<!DOCTYPE svg PUBLIC "-//W3C//DTD SVG 20010904//EN"
 "http://www.w3.org/TR/2001/REC-SVG-20010904/DTD/svg10.dtd">
<svg version="1.0" xmlns="http://www.w3.org/2000/svg"
 width="640.000000pt" height="1280.000000pt" viewBox="0 0 640.000000 1280.000000"
 preserveAspectRatio="xMidYMid meet">
<metadata>
Created by potrace 1.15, written by Peter Selinger 2001-2017
</metadata>
<g transform="translate(0.000000,1280.000000) scale(0.100000,-0.100000)"
fill="#000000" stroke="none">
<path d="M2845 12775 c-66 -13 -159 -24 -206 -24 l-86 -1 -140 -70 c-138 -69
-141 -71 -161 -118 -29 -66 -42 -157 -42 -286 0 -107 0 -109 31 -144 27 -31
30 -40 25 -76 -3 -23 0 -116 6 -208 10 -144 9 -192 -6 -346 -20 -204 -17 -236
29 -377 49 -148 54 -223 45 -710 -8 -400 -17 -522 -39 -549 -5 -6 -12 -63 -16
-126 -4 -63 -16 -167 -26 -230 -35 -209 -133 -546 -188 -645 -16 -27 -45 -102
-66 -165 -21 -63 -91 -261 -157 -439 -344 -937 -387 -1170 -374 -2016 4 -242
11 -784 16 -1205 5 -455 13 -806 20 -865 6 -55 12 -179 13 -275 l2 -174 -46
-17 c-25 -10 -79 -22 -118 -28 -40 -5 -80 -16 -89 -24 -10 -8 -42 -29 -74 -46
-47 -27 -64 -44 -100 -104 -40 -67 -43 -77 -43 -142 0 -54 6 -81 24 -118 26
-53 45 -64 180 -110 36 -12 68 -23 69 -24 2 -1 -28 -41 -68 -90 -99 -123 -150
-227 -157 -324 -3 -42 -2 -102 1 -133 l8 -56 89 -61 90 -60 114 -2 113 -2 6
-50 c3 -27 6 -127 6 -222 l0 -171 28 -22 c15 -12 59 -40 97 -61 39 -22 81 -48
95 -59 31 -25 129 -44 180 -35 l38 6 4 -53 c2 -29 -1 -73 -6 -98 l-11 -45 -57
-9 c-50 -7 -62 -5 -94 13 -33 19 -38 20 -53 7 -9 -8 -50 -29 -91 -45 -41 -17
-80 -39 -87 -48 -38 -55 -52 -56 -122 -4 -65 49 -129 65 -231 59 -57 -3 -90
-11 -126 -30 -27 -13 -70 -30 -96 -37 -26 -8 -59 -26 -74 -42 -15 -16 -35 -29
-43 -29 -9 0 -29 -19 -44 -41 -16 -22 -42 -49 -58 -61 -17 -13 -29 -31 -29
-44 0 -12 -7 -24 -15 -28 -9 -3 -15 -18 -15 -39 0 -34 0 -34 -62 -46 -35 -7
-72 -17 -83 -24 -11 -6 -61 -34 -111 -61 -74 -41 -102 -63 -144 -116 -70 -87
-90 -131 -90 -206 0 -60 1 -63 48 -112 67 -72 136 -102 235 -102 65 0 88 5
140 29 34 16 82 35 106 42 66 20 129 84 186 189 47 87 70 110 109 110 9 0 6
-32 -13 -126 l-25 -126 44 -84 c25 -47 53 -92 62 -101 19 -17 139 -53 179 -53
35 0 137 67 208 138 49 48 64 71 91 142 17 47 37 90 43 97 7 6 29 15 49 18
l38 7 -42 -88 c-41 -85 -43 -93 -42 -184 0 -147 43 -225 143 -258 47 -16 120
-15 172 3 l43 15 37 -36 c48 -47 102 -54 231 -29 l93 18 91 91 c50 50 101 110
113 133 11 23 26 45 32 49 6 3 26 37 44 75 33 70 45 72 45 8 0 -21 5 -29 17
-29 9 0 27 -9 39 -21 29 -27 82 -38 136 -28 58 10 125 -6 168 -40 37 -29 384
-178 480 -205 30 -9 82 -20 115 -25 33 -5 116 -30 185 -56 l125 -47 245 -3
c233 -3 407 7 454 25 13 4 29 4 39 -2 12 -6 34 -4 70 8 29 9 111 27 182 40
169 29 169 29 203 54 16 12 60 30 97 41 37 10 91 34 120 53 29 20 86 51 126
69 78 36 112 69 212 205 68 93 90 158 91 269 1 87 0 93 -26 120 -16 16 -28 37
-28 47 0 12 -23 28 -75 51 -41 19 -75 38 -75 43 0 4 14 16 32 26 46 28 107 85
124 117 8 16 14 54 14 86 0 77 -34 149 -101 214 l-52 50 37 38 c20 20 36 42
36 48 0 7 10 19 22 27 21 15 22 23 22 135 l-1 119 36 6 c20 3 65 6 99 6 105 0
163 23 220 85 55 60 92 130 92 175 0 17 -9 47 -20 67 -11 21 -20 46 -20 57 0
25 -87 141 -149 199 -33 31 -59 47 -76 47 -14 0 -47 9 -72 21 -50 23 -66 21
-151 -13 -62 -26 -53 -34 -137 120 -31 56 -60 102 -63 102 -4 0 -16 7 -27 15
-18 15 -17 17 32 68 61 61 74 91 75 168 1 76 -26 156 -86 255 -42 68 -65 93
-131 142 -102 75 -129 89 -196 98 -60 7 -81 21 -100 65 -10 26 -9 36 10 75 12
24 26 44 31 44 4 0 42 33 83 74 41 40 104 90 140 110 36 20 68 44 71 53 15 37
93 132 119 144 30 13 177 169 177 188 0 6 24 34 54 62 30 28 61 67 69 88 9 20
31 56 51 80 19 23 38 58 42 78 10 53 -2 135 -26 183 -20 39 -24 42 -53 36 -42
-8 -66 -32 -93 -91 -12 -27 -41 -68 -63 -90 -23 -22 -48 -55 -56 -73 -18 -41
-45 -76 -115 -150 -30 -31 -70 -81 -88 -109 -42 -65 -220 -237 -304 -294 -34
-24 -103 -74 -153 -111 -49 -38 -108 -73 -130 -79 -22 -6 -48 -15 -57 -20 -41
-21 -103 -3 -142 40 -19 21 -19 22 1 64 37 75 112 166 175 213 34 25 70 59 80
76 11 16 41 56 68 89 148 178 200 345 230 738 14 185 13 314 -4 461 -8 69 -22
215 -31 325 -8 110 -31 373 -50 585 -18 212 -38 435 -43 495 -8 100 -12 114
-41 158 l-33 47 -206 -5 c-114 -3 -269 -7 -344 -10 l-138 -5 -29 40 c-16 22
-50 81 -75 130 -42 81 -48 101 -71 250 -30 197 -65 343 -110 461 -19 48 -39
107 -45 131 -6 24 -34 90 -62 148 -28 58 -63 142 -78 187 -16 45 -62 147 -103
225 -82 156 -136 309 -192 542 -19 77 -43 168 -55 201 -47 135 -55 279 -54
975 l1 645 29 3 c37 5 50 16 59 49 5 21 1 31 -16 44 -27 20 -38 78 -38 214 -1
55 -4 144 -8 198 l-6 97 -27 0 c-21 0 -29 6 -32 23 -7 38 0 47 29 36 14 -5 28
-8 30 -5 3 2 7 82 10 178 3 133 1 185 -10 227 -11 40 -12 63 -5 90 29 104 -20
372 -68 379 -12 2 -33 16 -47 31 -16 18 -39 30 -65 34 -22 4 -63 23 -92 42
-47 32 -58 35 -119 34 -36 0 -120 -11 -186 -24z m252 -97 c31 -17 83 -41 117
-54 56 -20 64 -26 96 -80 31 -54 34 -66 34 -139 0 -95 -22 -153 -78 -205 -32
-30 -36 -39 -31 -67 6 -31 4 -33 -25 -33 -16 0 -30 -4 -30 -9 0 -5 -3 -16 -6
-25 -4 -10 5 -20 27 -31 36 -19 49 -10 49 34 0 20 2 21 15 11 13 -11 15 -69
15 -413 l0 -400 -57 6 c-32 3 -66 8 -75 12 -14 6 -18 2 -18 -19 0 -21 -5 -26
-26 -26 -39 0 -124 -40 -124 -59 0 -24 11 -36 48 -55 17 -9 32 -20 32 -25 0
-5 21 -12 46 -16 31 -4 55 -16 73 -33 l26 -27 -28 -3 c-28 -3 -47 -32 -47 -72
0 -19 60 -46 83 -37 7 3 23 -3 35 -13 22 -18 22 -19 2 -25 -26 -8 -26 -45 1
-79 16 -20 17 -26 6 -26 -48 0 -45 -75 3 -93 26 -10 30 -16 30 -49 0 -31 -4
-38 -19 -38 -50 0 -63 -24 -39 -75 8 -18 19 -25 40 -25 l28 0 -1 -67 c0 -56
-2 -64 -11 -45 -12 24 -37 29 -56 10 -15 -15 -16 -82 -2 -73 6 4 17 2 24 -4
10 -8 17 -7 27 5 12 15 14 14 20 -7 4 -13 7 -104 8 -202 1 -173 0 -178 -19
-172 -15 5 -21 0 -26 -19 -7 -29 9 -62 35 -71 15 -4 20 -19 25 -78 10 -110 44
-303 70 -401 l23 -88 -23 -23 c-13 -13 -24 -30 -24 -36 0 -21 32 -49 55 -49
19 0 28 -20 80 -177 33 -98 66 -189 75 -203 9 -14 29 -55 45 -93 15 -37 34
-72 42 -78 21 -18 15 -39 -12 -39 -22 0 -25 4 -25 35 0 49 -40 91 -71 74 -12
-6 -24 -20 -26 -30 -3 -11 -8 -18 -12 -17 -3 2 -34 18 -68 36 -58 30 -63 35
-63 65 0 42 -8 50 -28 30 -13 -12 -13 -19 -3 -34 11 -19 11 -19 -19 -4 -17 9
-30 24 -30 34 0 10 -9 29 -19 42 -24 29 -49 19 -70 -28 -10 -24 -23 -33 -49
-38 l-34 -6 6 -52 c3 -29 9 -117 12 -197 l7 -146 50 -12 c75 -18 93 -34 101
-86 8 -50 16 -54 60 -31 15 8 32 15 37 15 4 0 78 -65 163 -146 140 -131 157
-151 178 -205 33 -86 80 -139 123 -139 19 0 46 5 61 10 32 13 42 5 46 -34 2
-25 -1 -31 -22 -36 -36 -8 -50 -53 -25 -80 10 -11 24 -20 32 -20 16 0 16 -5 1
-29 -11 -18 -8 -32 14 -63 17 -23 -4 -68 -32 -68 -21 0 -24 -9 -14 -59 4 -17
13 -31 21 -31 9 0 13 -8 11 -22 -2 -15 -13 -24 -36 -30 -28 -8 -32 -12 -26
-31 3 -12 11 -27 16 -34 13 -17 -5 -24 -73 -30 l-59 -6 0 42 c0 47 -16 60 -59
45 -17 -6 -29 -20 -36 -42 -11 -38 -44 -43 -76 -11 -18 18 -24 19 -50 9 -15
-7 -31 -21 -34 -31 -5 -15 -16 -19 -48 -19 -46 0 -229 -25 -264 -35 -17 -6
-22 -2 -25 17 -4 33 -52 33 -56 0 -3 -17 2 -25 17 -29 13 -3 21 -13 21 -27 0
-19 -5 -21 -43 -18 -56 5 -77 -16 -53 -53 9 -13 16 -26 16 -29 0 -9 -218 2
-238 13 -14 8 -29 8 -47 1 -14 -5 -50 -10 -80 -10 l-53 0 11 30 c10 26 9 33
-10 52 -20 19 -25 20 -53 8 -28 -12 -31 -17 -28 -46 5 -42 -5 -45 -130 -33
-53 4 -135 12 -181 15 -47 4 -96 13 -109 20 -14 7 -31 10 -38 7 -17 -6 -18 9
-3 24 18 18 2 62 -24 68 -13 4 -35 1 -51 -5 -24 -9 -28 -15 -24 -41 l5 -31
-45 6 c-25 3 -55 6 -69 6 -20 0 -22 4 -17 25 6 23 4 25 -31 25 -33 0 -36 -2
-29 -22 3 -13 13 -27 20 -31 11 -6 8 -13 -12 -30 -19 -17 -35 -21 -65 -19 -25
3 -39 9 -39 18 0 11 -17 14 -69 14 -63 0 -69 -2 -75 -22 -4 -15 0 -27 11 -35
19 -14 43 -17 43 -5 0 4 4 13 9 21 7 11 13 10 31 -7 13 -12 26 -19 30 -17 4 2
12 -14 19 -35 8 -28 17 -40 30 -40 11 0 21 -9 25 -22 9 -35 7 -80 -3 -73 -5 3
-30 9 -55 14 -35 6 -48 5 -57 -6 -15 -17 -14 -65 2 -94 11 -22 12 -22 26 -3
13 18 15 18 27 2 7 -10 25 -18 38 -18 33 0 38 -21 31 -127 -5 -73 -8 -84 -23
-80 -9 2 -22 -4 -28 -13 -8 -14 -7 -21 7 -34 10 -9 23 -16 29 -16 8 0 12 -20
12 -58 0 -56 -1 -58 -27 -57 -23 0 -29 -5 -31 -27 -3 -25 0 -28 27 -28 22 0
32 5 33 18 1 9 5 -102 9 -248 3 -146 10 -371 14 -500 8 -242 0 -454 -16 -444
-5 3 -7 10 -4 15 4 5 -5 9 -19 9 -32 0 -44 -33 -20 -57 13 -13 19 -14 22 -5 7
22 22 13 22 -14 0 -33 -17 -64 -35 -64 -8 0 -19 -9 -26 -21 l-11 -21 -24 23
c-28 26 -33 23 -41 -24 -4 -29 -2 -36 13 -39 11 -2 27 0 36 6 30 18 47 -8 35
-53 l-11 -39 -27 20 c-30 23 -60 14 -80 -23 -9 -17 -7 -25 10 -42 19 -22 19
-23 1 -47 -10 -14 -22 -22 -26 -18 -9 10 -9 125 1 164 5 23 2 39 -10 58 -17
26 -17 28 4 50 30 32 26 90 -6 94 -18 3 -23 10 -23 33 0 19 5 29 15 29 22 0
18 38 -5 50 -18 10 -20 21 -20 103 0 81 2 94 20 105 11 7 20 19 20 27 0 12 8
14 41 9 40 -7 41 -6 37 22 -2 23 -9 30 -29 32 -20 2 -28 -2 -32 -20 l-7 -23
-15 23 c-9 12 -25 22 -36 22 -10 0 -19 7 -19 15 0 8 6 12 14 9 7 -3 23 7 35
22 36 45 23 101 -21 92 -24 -5 -24 -4 -37 131 -9 98 -9 151 -1 190 5 29 10 89
10 133 0 44 4 77 9 74 17 -11 44 20 37 42 -7 22 -36 31 -36 12 0 -5 -4 -10 -9
-10 -11 0 -15 376 -5 439 4 22 11 41 17 41 21 0 47 34 47 62 0 24 -6 32 -30
41 -37 14 -38 29 -5 51 33 22 36 86 5 107 -20 14 -20 16 -5 114 8 55 18 113
21 128 5 26 7 27 19 10 11 -14 18 -16 31 -7 25 15 27 29 9 48 -15 14 -18 14
-32 1 -8 -9 -17 -15 -18 -13 -8 8 28 223 40 242 7 12 21 48 29 81 19 75 127
398 191 572 47 127 50 132 79 135 39 4 61 52 33 73 -9 7 -17 20 -17 29 0 14
70 227 95 287 5 13 15 16 45 12 35 -5 41 -3 51 20 14 32 6 57 -22 64 -14 4
-18 11 -14 22 20 49 105 316 120 376 18 68 45 119 45 83 0 -26 26 -41 49 -28
25 13 29 60 6 60 -10 0 -15 10 -15 29 0 25 5 30 38 38 30 7 38 14 40 35 2 17
-4 34 -17 47 -28 28 -27 31 8 31 36 0 47 26 31 74 -9 27 -15 33 -31 29 -18 -5
-19 -2 -13 23 10 41 12 44 38 44 49 0 63 58 21 86 -34 22 -27 38 21 44 38 5
39 6 39 45 0 36 -3 41 -32 49 -34 10 -43 46 -12 46 9 0 27 8 39 18 21 17 21
19 7 55 -11 26 -22 37 -36 37 -15 0 -21 6 -21 23 0 20 4 23 30 19 26 -4 32 0
44 29 13 30 13 36 -1 52 -9 9 -29 17 -45 17 -19 0 -27 4 -22 11 3 6 15 9 25 6
25 -7 46 12 52 46 5 31 -14 47 -57 47 -27 0 -31 6 -17 28 7 11 12 11 28 1 28
-17 83 7 83 36 0 53 -10 64 -59 67 -44 3 -46 4 -49 35 -3 25 3 39 24 58 23 21
25 29 17 48 -8 18 -7 28 9 47 24 30 20 71 -9 85 -16 8 -19 15 -12 26 5 8 7 25
4 39 -6 31 8 55 28 47 23 -9 40 18 35 58 -4 39 16 50 27 15 8 -24 23 -25 53
-4 21 15 22 14 22 -15 0 -25 5 -32 26 -37 34 -9 46 5 38 44 -6 27 -11 32 -36
32 -23 0 -29 4 -24 15 3 8 1 26 -4 40 -8 20 -16 25 -44 25 -22 0 -36 6 -40 16
-9 24 -7 34 7 34 26 0 50 39 51 82 1 23 6 43 13 45 7 3 10 -3 6 -16 -7 -28 33
-49 55 -27 14 14 13 18 -10 39 l-26 25 24 11 c23 10 26 8 40 -24 7 -19 14 -48
14 -65 0 -32 15 -37 69 -21 32 9 36 66 6 87 -17 12 -18 17 -7 34 16 26 16 25
-13 44 -43 29 -126 39 -168 21 -43 -18 -89 -19 -104 -4 -8 8 -29 7 -78 -6 -37
-9 -73 -14 -79 -12 -7 3 -19 26 -26 52 -13 46 -11 139 8 449 l7 108 35 30 c19
16 34 36 32 44 -2 8 7 33 20 55 18 32 36 47 77 65 29 13 59 24 65 24 7 0 17
-20 24 -45 8 -29 21 -51 38 -62 25 -16 27 -16 39 0 10 14 13 6 18 -51 4 -37 7
-105 7 -152 0 -61 6 -96 19 -125 l18 -40 23 74 c21 69 22 85 16 238 l-7 163
38 0 c57 0 83 22 83 72 l0 41 -56 -7 c-45 -5 -61 -3 -75 10 -11 10 -27 14 -41
11 -12 -4 -28 -1 -35 5 -7 6 -13 6 -13 1 0 -5 -17 -10 -37 -11 -21 -1 -63 -4
-93 -7 -86 -9 -132 4 -152 44 -16 31 -21 34 -63 36 -28 0 -50 7 -56 16 -5 7
-9 71 -9 141 l0 126 29 24 c15 13 65 43 109 66 45 24 84 47 87 52 3 5 12 7 19
4 8 -3 17 -1 21 5 3 6 24 11 46 11 22 0 49 5 60 11 14 7 29 7 53 -2 29 -10 44
-9 93 6 32 9 86 20 120 24 34 3 65 10 69 14 13 13 34 7 91 -25z m-370 -690
c-3 -8 -6 -5 -6 6 -1 11 2 17 5 13 3 -3 4 -12 1 -19z m438 -798 c3 -5 -1 -10
-9 -10 -9 0 -16 5 -16 10 0 6 4 10 9 10 6 0 13 -4 16 -10z m224 -2594 c52 -25
107 -59 122 -74 15 -15 44 -37 64 -48 24 -12 79 -73 161 -177 113 -144 128
-168 164 -263 22 -57 43 -121 46 -144 l7 -40 -42 0 c-39 0 -42 2 -67 53 -52
103 -109 174 -242 305 -107 106 -140 132 -162 132 -17 0 -49 16 -81 40 -30 23
-63 43 -75 46 -18 5 -22 18 -33 109 -7 57 -10 109 -7 114 8 12 22 7 145 -53z
m1333 -1505 c14 -5 45 -4 78 1 38 7 67 7 95 -1 l41 -11 17 -113 c22 -142 17
-161 -78 -268 l-70 -78 -85 -1 c-47 0 -123 -5 -170 -11 -47 -5 -197 -14 -335
-20 -137 -5 -254 -9 -260 -10 -15 -1 -191 20 -260 30 -33 5 -96 10 -140 10
-94 1 -199 17 -203 30 -2 6 -21 33 -43 60 -56 70 -61 96 -41 226 l17 110 106
6 c58 3 112 10 120 15 12 7 459 19 629 16 196 -3 353 0 405 7 84 12 150 13
177 2z m-2574 -146 c164 -27 317 -40 652 -54 l215 -10 28 -33 c16 -18 35 -46
44 -62 18 -34 7 -45 -42 -46 -76 -1 -187 -30 -265 -69 -46 -23 -89 -41 -97
-41 -7 0 -22 -9 -33 -20 -39 -39 -221 -117 -300 -130 -88 -14 -110 -14 -160 0
-28 8 -40 17 -44 36 -10 37 26 109 63 128 43 23 61 19 29 -5 -56 -42 -20 -105
53 -93 30 5 39 13 58 50 36 76 24 117 -46 153 -30 16 -99 14 -132 -4 -45 -23
-108 -102 -126 -156 -31 -92 4 -162 98 -197 87 -32 125 -35 207 -12 166 44
184 50 204 69 12 10 66 40 121 66 55 26 106 52 113 58 28 22 160 60 217 62 33
1 77 6 98 10 l37 7 0 -68 c0 -38 -4 -74 -8 -79 -12 -19 -215 -135 -233 -135
-23 0 -69 21 -69 31 0 5 18 18 39 29 51 25 62 57 30 83 -62 50 -169 -31 -169
-127 0 -25 9 -45 29 -68 25 -28 35 -32 92 -36 35 -2 70 -9 77 -15 9 -7 18 -5
30 5 17 15 151 98 158 98 8 0 -33 -644 -51 -797 -27 -220 -12 -582 30 -747 53
-211 164 -421 298 -563 l49 -52 6 -109 c3 -71 1 -116 -7 -129 -6 -12 -45 -42
-86 -67 -87 -53 -94 -45 -47 46 53 103 30 240 -74 453 -53 109 -55 111 -126
157 -40 26 -85 50 -100 53 -48 12 -93 -12 -165 -88 l-68 -72 -1 43 c-1 29 -12
60 -36 100 -19 31 -38 65 -41 74 -7 19 -82 34 -124 24 -48 -12 -202 -90 -202
-103 -2 -24 -55 -123 -67 -123 -14 0 -32 -92 -43 -223 -4 -53 -10 -100 -13
-102 -3 -3 -8 27 -11 67 -6 77 -33 163 -89 291 -30 66 -45 86 -105 138 l-70
60 -7 127 c-28 543 -73 2099 -62 2128 8 20 68 18 244 -11z m2828 -420 c-4 -14
-11 -25 -16 -25 -15 0 -12 48 3 53 18 6 20 1 13 -28z m-1536 -15 c23 -23 25
-42 8 -69 -14 -23 4 -51 32 -51 22 0 34 43 20 70 -9 16 -6 22 19 35 18 9 54
15 88 14 77 0 142 -12 126 -22 -19 -12 -15 -39 11 -70 l23 -29 22 27 c11 15
21 36 21 46 0 23 8 23 34 4 23 -18 50 -19 78 -4 11 6 50 13 86 15 37 3 76 6
86 7 14 1 22 -7 28 -30 4 -18 12 -34 17 -37 12 -8 61 32 61 48 0 9 9 12 24 9
17 -4 26 -14 30 -34 4 -20 11 -29 25 -29 11 0 22 4 26 10 3 5 13 6 22 3 13 -5
15 0 11 30 -3 31 -1 37 14 37 13 0 18 -8 18 -28 0 -42 17 -54 51 -37 18 10 29
24 31 42 2 22 8 28 28 28 14 0 34 -11 46 -24 26 -30 71 -23 80 13 7 30 35 36
160 36 92 0 94 -1 94 -23 0 -39 21 -58 54 -49 45 12 73 -19 85 -99 14 -86 14
-87 -11 -91 -15 -2 -26 -14 -33 -33 -5 -16 -21 -40 -35 -52 -20 -18 -23 -25
-14 -40 15 -24 42 -28 46 -7 1 10 12 18 23 19 11 1 26 4 34 6 10 3 17 -9 22
-38 12 -65 38 -408 45 -599 l7 -171 -32 5 c-30 4 -31 3 -31 -31 0 -43 23 -67
38 -40 14 24 21 14 15 -17 -3 -16 -16 -31 -34 -39 -32 -14 -39 -49 -17 -96 13
-28 19 -30 36 -13 29 29 5 -212 -35 -352 -34 -119 -104 -240 -140 -240 -8 0
-23 -5 -34 -11 -20 -10 -20 -12 -4 -29 17 -18 16 -21 -10 -52 -15 -18 -71 -73
-124 -121 -97 -89 -102 -91 -154 -71 -23 8 -39 -29 -27 -61 9 -24 5 -31 -40
-76 -43 -43 -56 -50 -94 -53 -54 -3 -70 -15 -103 -80 -38 -76 -38 -76 -82 -54
l-39 19 21 23 c12 12 26 19 32 14 16 -14 31 -9 43 16 7 17 7 27 -1 35 -14 14
-47 15 -47 1 0 -6 -11 -3 -25 6 -23 15 -27 15 -50 0 -14 -9 -25 -23 -25 -32 0
-8 -10 -32 -22 -53 l-21 -37 26 -57 c24 -50 32 -58 69 -68 23 -6 55 -8 71 -5
35 7 124 95 133 132 3 13 10 24 15 24 5 0 6 -12 2 -27 -9 -31 -10 -140 -3
-453 2 -118 -1 -519 -7 -890 -11 -612 -14 -683 -32 -765 -25 -112 -26 -143 -3
-202 21 -56 120 -195 133 -187 11 7 92 -17 101 -31 16 -22 7 -55 -27 -97 -173
-216 -163 -506 20 -533 58 -9 152 2 182 22 12 8 41 19 64 24 22 5 61 25 86 44
25 19 52 35 59 35 7 0 29 20 50 45 20 25 43 45 50 45 8 0 30 -24 49 -54 33
-53 35 -54 116 -76 69 -18 89 -20 120 -11 49 15 160 132 184 195 13 34 22 45
34 42 9 -3 28 -8 42 -11 29 -7 49 -55 49 -118 0 -42 -25 -71 -130 -148 -42
-31 -87 -70 -102 -87 -28 -34 -143 -107 -198 -127 -19 -7 -59 -29 -88 -48 -59
-41 -101 -55 -182 -64 -30 -3 -60 -9 -66 -14 -14 -11 -125 -39 -199 -50 -33
-4 -80 -14 -105 -20 -25 -7 -132 -14 -238 -16 -211 -4 -331 10 -538 63 -55 14
-117 29 -139 33 -22 4 -50 13 -62 19 -12 7 -45 17 -73 23 -28 6 -54 17 -57 25
-3 8 -17 14 -32 14 -14 0 -39 9 -56 20 -40 26 -52 33 -108 60 -27 13 -66 43
-87 67 l-38 44 35 76 c19 42 42 106 52 143 l16 68 58 5 c48 4 64 11 97 41 22
20 46 36 53 36 7 0 28 14 45 31 l33 32 -3 -114 c-3 -114 -3 -114 30 -163 17
-28 32 -58 32 -68 0 -31 73 -58 155 -58 53 0 82 6 120 24 104 48 141 98 204
267 34 96 43 110 110 179 106 110 111 123 111 316 l0 162 -33 63 c-18 35 -47
87 -65 114 l-31 50 -12 287 -12 287 61 68 c34 38 68 85 77 106 23 56 18 142
-15 270 -16 64 -30 125 -30 137 0 40 -53 126 -119 190 l-66 65 -6 200 c-5 173
-9 207 -28 253 -11 29 -21 65 -21 81 0 33 -65 113 -112 137 -22 12 -27 19 -19
27 6 6 11 24 11 39 0 38 -45 51 -70 20 l-17 -21 -62 38 c-34 21 -78 46 -99 55
-20 9 -48 33 -61 52 -13 19 -50 58 -81 87 -58 54 -182 236 -226 331 -48 105
-72 252 -39 240 25 -10 65 23 65 53 0 34 -37 66 -67 58 -37 -9 -29 29 11 53
28 17 33 24 28 47 -3 19 -14 31 -33 39 -36 13 -36 17 0 38 37 20 32 56 -11 72
-16 6 -28 18 -28 27 0 18 21 44 41 51 8 3 5 17 -9 44 -15 29 -19 52 -15 80 3
22 0 57 -5 77 -9 32 -8 37 7 37 46 0 56 66 16 106 -32 32 -31 34 4 34 21 0 30
6 34 22 7 24 -15 66 -39 75 -23 9 -16 23 11 23 31 0 51 40 35 71 -6 10 -14 19
-18 19 -34 1 -37 50 -3 50 45 0 56 60 16 86 -19 12 -23 20 -15 29 15 18 74 23
89 8 23 -25 41 -15 41 22 0 31 -3 35 -26 35 -26 0 -42 13 -65 54 -10 17 -8 18
15 14 19 -4 26 -1 27 11 0 10 2 12 6 4 2 -7 16 -13 29 -13 29 0 32 24 8 59
l-17 24 -12 -23 c-12 -22 -13 -21 -30 29 -21 64 -9 89 25 53 26 -27 50 -28 50
-3 0 35 -12 51 -37 51 -23 0 -25 3 -20 33 3 17 11 49 19 70 15 43 45 50 78 17z
m-1566 -1857 c6 -22 15 -33 27 -33 39 0 71 -26 119 -96 117 -169 165 -343 129
-465 -11 -35 -16 -39 -61 -48 -65 -14 -86 -14 -142 3 -68 21 -120 60 -172 130
-83 110 -124 217 -124 324 0 48 53 154 96 192 30 26 43 31 77 28 37 -3 42 -6
51 -35z m781 -98 c13 -34 16 -66 13 -137 -4 -88 -7 -98 -52 -186 -27 -51 -55
-100 -63 -108 -24 -24 -72 -17 -110 16 -18 17 -40 30 -48 30 -21 0 -36 35 -30
67 12 54 119 261 141 272 12 5 32 28 45 50 19 35 28 41 55 41 29 0 34 -5 49
-45z m393 -79 c100 -53 182 -231 182 -398 0 -72 -2 -79 -25 -94 -43 -28 -165
-3 -165 33 0 7 -12 13 -26 13 -38 0 -89 44 -107 93 -34 89 -59 201 -53 235 7
45 49 108 88 132 32 19 46 18 106 -14z m-290 -192 c3 -82 19 -142 53 -200 25
-44 28 -56 19 -79 -21 -55 -50 -85 -81 -85 -36 0 -62 -13 -107 -51 -18 -16
-44 -29 -58 -29 -14 0 -41 -8 -62 -19 -20 -10 -56 -25 -80 -32 -40 -11 -44
-11 -67 11 -14 13 -27 31 -30 41 -9 28 12 91 44 134 28 38 29 38 92 36 120 -3
167 52 258 302 6 15 12 27 14 27 1 0 4 -25 5 -56z m-1028 -261 c0 -10 -4 -14
-8 -8 -4 6 -11 13 -16 18 -5 4 -2 7 7 7 10 0 17 -8 17 -17z m1938 -8 c54 -23
192 -115 192 -129 0 -37 -35 -134 -64 -180 -56 -88 -113 -113 -134 -58 -55
146 -75 277 -53 345 7 21 15 37 17 37 3 0 21 -7 42 -15z m1372 -48 c0 -2 -12
-14 -27 -28 l-28 -24 24 28 c23 25 31 32 31 24z m-3233 -48 c-8 -30 12 -68 40
-75 13 -4 23 -13 23 -21 0 -8 -6 -13 -13 -10 -7 3 -19 -4 -26 -15 -15 -25 3
-52 31 -45 33 9 19 -10 -22 -31 l-40 -19 0 21 c0 27 -27 66 -46 66 -9 0 -14
11 -14 32 0 29 1 30 13 14 16 -21 50 -18 55 5 1 9 -6 27 -18 40 -18 22 -21 23
-33 8 -11 -15 -14 -13 -23 17 l-11 34 45 0 c40 0 44 -2 39 -21z m422 -76 c12
-38 12 -45 -5 -74 -24 -41 -96 -79 -153 -82 l-42 -2 -25 60 c-14 33 -28 79
-31 102 -6 48 -7 47 105 57 35 3 71 10 80 16 22 13 52 -20 71 -77z m681 -18
c25 -8 76 -21 114 -27 42 -8 72 -19 76 -28 4 -8 15 -30 24 -48 25 -47 14 -82
-50 -156 -48 -57 -60 -65 -101 -71 -25 -4 -58 -11 -71 -16 -35 -13 -190 -18
-230 -7 -18 5 -53 28 -77 52 -38 36 -45 49 -45 80 0 20 5 47 11 59 14 26 90
107 101 107 5 0 26 12 47 26 32 21 78 35 146 43 6 1 30 -6 55 -14z m505 -37
c15 -7 35 -28 45 -48 10 -19 29 -46 42 -60 14 -14 28 -38 32 -55 4 -16 18 -44
32 -62 43 -57 28 -198 -36 -328 -41 -84 -90 -130 -138 -128 -64 2 -91 19 -115
70 -30 66 -30 232 1 348 24 92 94 275 104 275 4 0 19 -5 33 -12z m1439 -60 c3
-13 7 -95 9 -183 3 -138 6 -167 25 -209 28 -63 28 -79 -7 -152 -27 -57 -70
-104 -94 -104 -12 0 -88 50 -99 64 -8 12 -65 13 -140 2 l-58 -8 0 159 0 160
29 40 c16 22 52 82 81 135 51 93 53 95 90 96 21 1 48 6 61 11 13 5 41 10 61
10 31 1 38 -3 42 -21z m-2499 -48 c15 -16 40 -32 55 -35 31 -7 40 -27 40 -92
0 -36 6 -48 55 -97 30 -31 63 -56 73 -56 17 0 20 -10 25 -97 2 -54 3 -100 1
-102 -2 -2 -31 7 -64 19 -42 16 -73 21 -100 17 -44 -6 -44 -5 -56 78 -8 62
-39 115 -65 115 -30 0 -59 19 -59 38 0 15 -12 17 -93 17 -50 0 -109 -4 -131
-9 l-39 -9 7 39 c11 60 9 58 168 96 25 6 53 25 85 58 26 28 53 50 59 50 5 0
23 -13 39 -30z m-629 -67 c20 -10 34 -24 34 -35 0 -9 8 -33 17 -53 20 -43 12
-64 -62 -159 -48 -62 -54 -65 -149 -101 -110 -41 -192 -57 -239 -48 -18 3 -63
21 -100 40 -55 27 -71 41 -83 69 -23 54 -5 101 61 163 70 67 143 101 214 101
33 0 61 6 70 14 42 37 167 42 237 9z m141 -5 c-3 -8 -6 -5 -6 6 -1 11 2 17 5
13 3 -3 4 -12 1 -19z m1968 -90 c7 -18 16 -53 20 -78 l7 -46 -51 -24 c-28 -13
-60 -32 -71 -42 -23 -22 -55 -17 -62 10 -3 9 -2 51 1 92 6 73 6 74 37 81 17 3
42 13 55 22 34 25 48 21 64 -15z m1404 -8 c136 -88 219 -209 228 -332 4 -63 4
-63 -40 -113 l-44 -49 -59 26 c-32 15 -72 30 -89 34 -50 12 -167 124 -209 201
-21 37 -47 85 -59 105 -20 34 -21 40 -8 60 8 13 21 35 28 50 13 26 27 33 108
51 54 13 84 6 144 -33z m-2064 -349 c19 -58 63 -114 106 -137 37 -19 37 -46 0
-115 -15 -30 -40 -76 -55 -104 -15 -27 -37 -55 -49 -62 -38 -21 -97 -16 -139
13 -36 25 -38 30 -38 79 0 36 5 57 16 66 22 18 68 113 92 189 33 108 36 166
13 240 -27 86 -27 108 2 112 21 3 22 0 28 -113 4 -67 14 -138 24 -168z m-164
213 c8 -10 14 -55 17 -127 4 -113 -6 -170 -30 -165 -7 2 -15 -15 -19 -41 -10
-51 -24 -75 -92 -153 -31 -37 -57 -58 -70 -58 -12 0 -37 -9 -55 -20 -44 -27
-68 -25 -103 9 -24 25 -29 38 -29 78 0 95 40 194 135 333 30 44 55 85 55 90 0
6 8 10 18 10 9 1 42 14 72 30 63 33 82 36 101 14z m-839 -22 c51 11 71 5 102
-33 50 -59 16 -164 -97 -299 l-63 -73 -122 -37 -123 -37 -32 21 c-72 48 -83
135 -32 237 31 60 106 144 149 166 16 9 37 25 47 36 9 12 34 26 55 32 33 10
42 10 57 -5 15 -14 26 -16 59 -8z m1851 -106 c111 -91 175 -233 184 -407 6
-110 -4 -154 -49 -205 -44 -50 -95 -48 -176 6 -108 72 -134 110 -183 261 -53
168 -61 250 -29 307 30 53 81 81 147 82 46 0 57 -5 106 -44z m-2318 -83 c-4
-10 -13 -53 -22 -96 -20 -105 -6 -178 44 -223 34 -31 34 -31 20 -72 -34 -98
-120 -198 -222 -257 -42 -25 -59 -29 -120 -29 -58 1 -82 6 -130 30 -71 35 -85
58 -85 144 0 73 26 147 77 220 53 76 144 170 179 185 19 8 43 29 55 49 24 41
82 64 163 65 42 1 47 -1 41 -16z m1915 -91 c0 -34 -7 -79 -15 -98 -13 -32 -18
-35 -42 -29 -38 9 -45 22 -40 76 3 36 13 58 42 93 46 56 55 49 55 -42z m-1114
47 c24 -6 47 -16 50 -21 4 -6 -2 -50 -12 -99 -14 -71 -16 -101 -8 -148 14 -87
-9 -131 -89 -173 -90 -46 -185 -28 -219 42 -25 49 -24 154 1 203 19 38 128
186 146 199 15 11 80 10 131 -3z m2565 -48 l24 -20 -32 -33 c-25 -25 -35 -30
-45 -20 -9 9 -9 21 1 52 13 45 19 48 52 21z m-351 -75 c30 -28 63 -66 73 -84
21 -38 33 -127 23 -165 -6 -24 -8 -24 -47 -16 -52 12 -102 3 -158 -27 -43 -24
-45 -24 -87 -8 -53 20 -58 42 -49 211 6 104 10 123 24 123 9 0 27 6 41 13 15
8 45 11 75 9 43 -4 57 -11 105 -56z m613 -84 c85 -80 92 -88 143 -172 82 -137
108 -286 62 -353 -31 -46 -48 -57 -87 -57 -40 0 -63 13 -171 97 -85 66 -151
155 -175 236 -9 29 -19 94 -22 145 -5 81 -4 95 13 113 27 31 67 45 126 47 48
1 53 -2 111 -56z m-1802 -62 c30 -8 46 -25 107 -115 89 -132 97 -166 88 -359
-4 -77 -12 -149 -18 -160 -18 -36 -82 -97 -117 -112 -18 -8 -55 -14 -80 -14
-40 0 -54 6 -90 36 -85 73 -142 244 -142 427 0 148 31 252 88 297 24 18 36 21
78 15 28 -3 66 -10 86 -15z m-1474 -107 c49 -5 54 -8 78 -50 15 -24 40 -59 56
-78 30 -34 30 -34 13 -67 -9 -18 -36 -58 -60 -89 -23 -30 -52 -74 -64 -98 -19
-34 -26 -40 -44 -35 -31 9 -75 53 -99 99 -32 59 -32 219 0 289 20 42 26 47 45
41 13 -4 47 -9 75 -12z m866 -50 c26 -13 47 -28 47 -34 0 -8 -16 -46 -25 -56
-1 -2 -19 6 -40 17 -63 32 -80 27 -154 -45 -37 -36 -70 -65 -73 -65 -10 0 -28
98 -28 152 0 41 3 49 12 40 22 -22 158 -5 158 20 0 12 47 -1 103 -29z m2167
-202 c0 -9 -4 -22 -9 -30 -7 -10 -19 5 -47 60 -36 69 -42 101 -27 139 6 16 83
-140 83 -169z m-272 109 c109 -43 154 -100 188 -239 21 -90 19 -151 -6 -234
-35 -111 -103 -166 -182 -147 -57 13 -68 21 -100 69 -17 25 -43 60 -59 76 -39
43 -84 209 -74 279 3 28 9 80 13 116 9 78 14 87 55 99 54 16 85 12 165 -19z
m-906 -38 c35 -26 82 -53 105 -60 41 -12 42 -13 48 -67 9 -70 -1 -122 -25
-135 -43 -23 -191 46 -211 97 -18 49 -7 213 15 213 3 0 33 -21 68 -48z m1964
8 c38 -18 80 -50 106 -79 61 -68 102 -191 63 -191 -8 0 -31 -22 -51 -50 -39
-54 -48 -59 -62 -34 -7 13 -12 14 -29 4 -16 -10 -39 -9 -128 9 -60 12 -112 24
-116 26 -15 10 -20 85 -14 202 l7 122 42 15 c56 20 107 13 182 -24z m-4126
-14 c0 -16 -11 -32 -31 -46 -16 -12 -32 -20 -34 -18 -5 5 53 88 61 88 2 0 4
-11 4 -24z m1428 -125 c5 -14 14 -53 21 -86 14 -81 79 -209 146 -291 30 -36
55 -75 55 -86 0 -31 -52 -116 -75 -122 -11 -3 -46 -6 -77 -6 l-57 0 -41 75
c-55 99 -58 124 -26 224 45 142 28 257 -53 359 -20 26 -29 46 -25 57 6 13 18
6 65 -41 32 -31 62 -69 67 -83z m-693 64 c27 -53 30 -69 29 -152 0 -82 -3 -96
-27 -130 -14 -21 -35 -59 -47 -85 -11 -26 -32 -56 -46 -65 -14 -10 -33 -25
-43 -33 -24 -22 -110 -50 -151 -50 -29 1 -42 9 -74 46 -33 39 -37 50 -33 82 8
59 54 179 82 216 14 18 25 43 25 55 0 23 100 138 137 158 21 11 83 21 108 18
6 0 23 -27 40 -60z m446 -25 c33 -27 66 -50 73 -50 39 0 59 -145 32 -233 -14
-46 -92 -136 -131 -151 -44 -17 -122 30 -155 93 -50 97 -13 323 62 375 35 25
55 19 119 -34z m-1221 -47 c0 -25 -42 -91 -47 -76 -3 7 5 25 16 39 12 15 21
33 21 40 0 8 2 14 5 14 3 0 5 -8 5 -17z m178 -94 c30 -39 69 -80 89 -91 31
-19 34 -24 28 -52 -17 -80 -17 -102 0 -171 17 -68 17 -75 2 -99 -12 -17 -36
-31 -81 -44 l-65 -20 -63 32 c-84 42 -108 82 -108 184 0 106 36 206 109 299
15 18 28 33 31 33 3 0 29 -32 58 -71z m2617 1 c2 -20 13 -68 24 -107 18 -61
28 -143 17 -143 -2 0 -20 15 -40 34 l-36 35 0 119 c0 65 3 122 7 126 11 10 25
-23 28 -64z m772 -29 c90 -65 167 -87 232 -66 12 3 21 2 21 -3 0 -5 18 -30 40
-55 27 -31 40 -54 40 -74 0 -17 7 -73 15 -127 25 -167 -6 -207 -167 -214 -78
-4 -88 -2 -88 12 0 12 -7 16 -22 14 -16 -2 -33 12 -70 59 -61 79 -82 151 -82
288 -1 94 17 195 34 195 4 0 25 -13 47 -29z m-2633 -122 c24 -100 22 -120 -25
-179 -39 -50 -91 -90 -116 -90 -9 0 -13 18 -13 56 0 44 6 68 29 108 16 28 39
76 51 106 25 62 40 84 50 73 4 -4 15 -38 24 -74z m1243 -24 c-7 -46 -48 -138
-67 -150 -31 -19 -72 63 -60 120 5 25 12 31 44 36 20 3 45 13 54 23 27 27 35
19 29 -29z m187 3 c9 -35 7 -130 -3 -124 -11 7 -34 124 -26 136 10 17 22 11
29 -12z m1051 -193 c16 -65 38 -123 71 -185 33 -62 34 -69 34 -170 0 -58 -5
-125 -11 -149 -14 -62 -59 -151 -83 -163 -12 -6 -29 -20 -38 -32 l-17 -21 -43
24 c-24 13 -57 31 -74 39 -17 8 -37 25 -45 37 -8 12 -27 42 -44 65 -25 36 -30
55 -33 116 -2 40 1 110 8 156 6 46 14 105 17 131 6 50 32 79 74 82 10 1 43 29
73 64 54 62 75 111 77 183 1 18 7 -7 14 -57 7 -49 16 -103 20 -120z m-1425 18
c115 -150 142 -254 104 -398 -17 -68 -34 -98 -67 -120 -28 -18 -106 -30 -142
-21 -32 8 -115 83 -115 104 0 9 -10 26 -22 39 -18 20 -23 39 -26 96 -2 40 1
90 7 112 14 49 103 172 134 184 96 36 101 37 127 4z m969 -27 c24 -25 57 -50
73 -57 28 -11 29 -13 24 -68 -3 -31 -8 -89 -11 -129 -12 -143 -46 -197 -130
-207 -85 -11 -158 37 -186 122 -17 52 -5 145 25 206 32 64 125 177 146 177 9
0 35 -20 59 -44z m-1902 2 c23 -14 61 -25 98 -28 l60 -5 8 -65 c15 -123 -31
-322 -83 -360 -12 -8 -41 -32 -66 -52 -25 -21 -51 -38 -58 -38 -14 0 -89 56
-137 101 -57 54 -48 206 19 319 32 54 107 150 117 150 2 0 21 -10 42 -22z
m1280 -69 c39 -12 88 -65 134 -144 l34 -60 0 -140 c0 -127 -3 -145 -24 -188
-27 -54 -49 -64 -110 -47 -54 14 -109 64 -146 132 -28 51 -29 57 -26 170 2 82
-2 134 -13 170 -33 118 -27 131 57 123 34 -4 76 -11 94 -16z m-1745 -30 c37
-20 49 -72 49 -213 0 -130 -19 -247 -42 -255 -6 -1 -21 -27 -34 -57 -27 -62
-48 -74 -129 -74 -124 0 -162 86 -116 263 22 88 113 292 144 324 23 24 92 31
128 12z m788 -28 c18 -35 11 -79 -18 -113 -16 -18 -37 -54 -48 -80 -10 -27
-22 -48 -25 -48 -9 0 20 143 31 154 6 6 10 21 10 36 0 64 28 92 50 51z m189
-123 c2 -6 18 -27 36 -47 17 -20 38 -58 45 -85 14 -51 74 -138 133 -195 l35
-33 -19 -56 c-25 -73 -56 -112 -115 -144 -69 -37 -112 -43 -178 -24 -70 21
-117 66 -145 141 -31 83 -24 229 14 275 7 8 32 50 55 93 24 43 52 83 64 87 25
11 69 3 75 -12z m2279 -131 c39 -26 62 -48 62 -59 0 -10 9 -36 20 -58 30 -58
26 -86 -17 -130 -70 -68 -196 -98 -270 -64 -58 28 -66 50 -48 125 8 35 15 74
15 87 0 12 17 45 38 72 20 27 45 60 55 74 18 25 19 26 50 10 18 -9 60 -35 95
-57z m-3016 -167 c44 -27 118 -97 118 -111 0 -8 16 -59 36 -114 44 -122 47
-173 16 -240 -13 -27 -31 -65 -39 -83 -9 -18 -28 -39 -43 -47 -14 -7 -32 -21
-39 -29 -31 -37 -139 -5 -181 53 -11 17 -30 52 -42 78 -45 98 -21 312 52 484
22 53 30 87 30 133 l1 61 33 -85 c23 -56 42 -90 58 -100z m-725 1 c17 -68 -39
-231 -107 -313 -31 -37 -146 -108 -228 -141 -54 -22 -106 -22 -123 0 -21 24
-13 107 15 169 39 85 124 201 152 208 13 4 24 11 24 16 0 5 17 21 38 35 20 14
49 34 64 46 14 12 48 27 75 35 45 11 49 11 66 -8 9 -11 20 -32 24 -47z m1138
42 c-4 -16 -8 -38 -11 -50 -5 -28 -21 -30 -29 -3 -4 12 2 30 16 50 28 37 31
37 24 3z m-1567 -35 c23 -16 42 -32 42 -36 0 -4 -16 -30 -35 -57 -85 -121
-104 -153 -116 -192 -10 -37 -22 -49 -86 -93 l-75 -50 -86 0 c-155 1 -195 21
-208 108 -17 109 61 218 206 291 154 77 274 87 358 29z m538 -18 c2 -84 21
-142 61 -190 33 -38 35 -44 28 -87 -11 -76 -44 -151 -85 -194 -33 -35 -43 -40
-77 -37 -30 2 -41 9 -51 31 -19 39 -1 138 40 226 57 123 68 162 68 238 0 87
14 99 16 13z m1952 -53 c41 -51 88 -92 140 -123 12 -7 -33 -199 -59 -252 -29
-60 -73 -102 -106 -102 -6 0 -24 -5 -40 -12 -37 -15 -63 -18 -63 -6 0 6 -10 8
-23 5 -31 -8 -44 2 -62 52 -35 101 -13 280 49 385 19 33 99 116 111 116 1 0
25 -29 53 -63z m946 -38 c13 -7 30 -23 36 -38 7 -16 30 -35 61 -49 58 -28 58
-28 27 -166 -21 -94 -24 -99 -54 -112 -18 -8 -36 -19 -39 -25 -16 -26 -138
-69 -201 -72 -60 -2 -65 0 -98 32 -36 34 -47 75 -27 97 5 5 14 33 20 62 23
111 82 189 189 248 31 17 58 32 59 33 1 0 13 -4 27 -10z m-1807 -144 c26 -38
68 -84 92 -103 43 -32 45 -36 42 -79 -4 -65 -24 -115 -85 -212 -52 -82 -57
-87 -122 -115 -83 -36 -130 -39 -154 -8 -31 37 -33 91 -10 183 12 46 25 136
30 201 4 64 12 123 17 132 4 8 33 36 63 62 51 44 55 45 67 27 7 -10 34 -50 60
-88z m2313 3 c19 -10 47 -18 62 -18 62 0 62 -81 0 -173 -39 -60 -52 -66 -119
-56 -132 19 -161 159 -55 271 25 27 26 27 51 11 14 -10 42 -25 61 -35z m-3158
-35 c8 -32 -12 -81 -43 -107 -17 -14 -34 -26 -38 -26 -5 0 1 28 12 63 11 34
22 68 23 75 5 18 41 14 46 -5z m-1442 -93 c0 -5 15 -27 34 -47 52 -59 86 -114
86 -140 0 -65 -71 -139 -157 -162 -18 -5 -46 -19 -62 -30 -24 -17 -45 -22
-108 -22 -127 -1 -183 32 -183 110 0 99 60 168 219 251 92 47 171 66 171 40z
m560 -142 c0 -4 20 -19 45 -34 48 -27 95 -34 158 -20 l37 8 0 -48 c0 -64 -41
-137 -107 -189 -26 -22 -57 -49 -69 -61 -13 -13 -39 -23 -74 -28 -52 -7 -54
-6 -92 31 -53 51 -71 88 -69 146 1 58 25 117 82 198 l43 60 22 -28 c13 -15 23
-31 24 -35z m964 36 c10 -4 16 -18 16 -40 0 -27 -4 -34 -19 -34 -28 0 -191
-176 -229 -248 -18 -34 -41 -99 -50 -144 -19 -93 -22 -95 -119 -97 -45 -1 -58
3 -85 28 -33 29 -33 31 -33 118 0 76 4 96 28 148 28 60 72 115 91 115 31 0 90
24 119 48 41 35 207 108 254 111 6 1 18 -2 27 -5z m117 -190 c37 -39 120 -84
157 -84 13 0 22 -6 22 -15 0 -23 -54 -115 -67 -115 -7 0 -20 -17 -28 -37 -9
-21 -39 -61 -67 -90 -41 -41 -64 -56 -120 -74 -68 -22 -71 -22 -124 -5 -61 19
-74 36 -74 100 0 105 59 203 177 297 41 33 78 59 82 59 4 0 23 -16 42 -36z
m882 -232 c37 -17 67 -33 67 -36 0 -6 -15 0 -123 47 -43 19 -81 38 -84 41 -10
10 64 -18 140 -52z"/>
<path d="M2514 12583 c-43 -3 -53 -8 -58 -26 -3 -12 -1 -26 4 -31 11 -11 185
5 199 19 3 3 0 14 -5 23 -12 18 -48 22 -140 15z"/>
<path d="M2720 12551 c0 -13 17 -25 56 -41 48 -20 61 -22 88 -12 18 7 66 12
108 12 79 0 107 13 94 45 -7 20 -105 20 -171 0 -27 -8 -54 -11 -59 -6 -6 5
-35 11 -63 14 -47 5 -53 4 -53 -12z"/>
<path d="M3102 12211 c-18 -11 -12 -41 11 -55 22 -14 51 2 55 31 2 14 -4 22
-20 27 -29 7 -30 7 -46 -3z"/>
<path d="M2950 12118 c0 -9 9 -26 19 -40 11 -13 21 -40 23 -59 2 -28 7 -35 29
-37 37 -4 46 24 19 60 -24 33 -25 38 -5 38 16 0 21 25 7 34 -5 3 -28 8 -50 12
-34 5 -42 4 -42 -8z"/>
<path d="M3116 12085 c-16 -13 -17 -18 -6 -44 10 -26 15 -29 32 -20 14 7 18
19 16 41 -4 37 -15 43 -42 23z"/>
<path d="M2533 11514 c-8 -22 10 -49 33 -49 22 0 31 30 14 50 -16 20 -39 19
-47 -1z"/>
<path d="M2881 11136 c-10 -13 4 -56 18 -56 45 0 59 54 16 62 -14 3 -29 0 -34
-6z"/>
<path d="M2960 11097 c0 -32 31 -51 72 -43 26 5 29 3 35 -24 7 -37 27 -38 49
-4 15 22 15 27 3 35 -8 5 -24 9 -36 9 -13 0 -24 8 -28 20 -3 11 -12 20 -19 20
-8 0 -28 3 -45 6 -28 6 -31 4 -31 -19z"/>
<path d="M2880 11025 c-15 -18 -7 -43 16 -52 19 -7 34 12 34 45 0 26 -30 31
-50 7z"/>
<path d="M2662 10998 c-21 -21 -8 -68 19 -68 4 0 12 14 19 31 11 26 11 32 -1
40 -19 12 -23 11 -37 -3z"/>
<path d="M2950 10955 c0 -19 5 -25 23 -25 29 0 53 35 31 44 -35 13 -54 7 -54
-19z"/>
<path d="M2750 10955 c-17 -21 -2 -50 26 -50 14 0 19 7 19 30 0 34 -24 45 -45
20z"/>
<path d="M3068 10953 c-21 -5 -24 -36 -4 -52 22 -18 48 -2 44 27 -3 27 -12 32
-40 25z"/>
<path d="M2837 10923 c-15 -15 -5 -44 19 -55 29 -13 44 0 44 40 0 18 -6 22
-28 22 -16 0 -32 -3 -35 -7z"/>
<path d="M2920 10850 c-21 -13 -1 -64 28 -68 18 -3 22 1 22 25 0 26 -15 53
-29 53 -4 0 -13 -4 -21 -10z"/>
<path d="M3059 10843 c-24 -6 -31 -54 -11 -70 31 -23 42 -15 42 32 0 25 -3 44
-7 44 -5 -1 -15 -3 -24 -6z"/>
<path d="M3149 10843 c-13 -3 -15 -10 -10 -31 8 -31 29 -38 54 -20 11 9 15 21
11 36 -6 21 -19 25 -55 15z"/>
<path d="M2780 10770 c0 -16 23 -60 31 -60 9 0 49 49 49 61 0 5 -18 9 -40 9
-22 0 -40 -4 -40 -10z"/>
<path d="M2590 10747 c-16 -8 -26 -23 -28 -40 -3 -25 -1 -27 33 -27 22 0 38
-6 41 -15 8 -20 50 -19 58 1 9 22 -1 34 -29 34 -17 0 -26 8 -34 30 -12 35 -9
33 -41 17z"/>
<path d="M3034 10705 c-9 -21 14 -45 42 -45 26 0 30 11 14 41 -13 23 -48 25
-56 4z"/>
<path d="M2884 10670 c-16 -16 -6 -48 18 -56 24 -7 28 -3 31 32 2 22 -3 30
-18 32 -11 1 -25 -2 -31 -8z"/>
<path d="M3120 10655 c0 -12 8 -29 18 -38 17 -16 19 -16 31 7 16 29 10 42 -24
48 -21 4 -25 1 -25 -17z"/>
<path d="M2740 10605 c0 -24 25 -45 54 -45 21 0 21 34 0 54 -25 25 -54 20 -54
-9z"/>
<path d="M2571 10607 c-18 -18 -13 -54 9 -60 21 -5 50 16 50 36 0 18 -46 37
-59 24z"/>
<path d="M2848 10543 c-18 -3 -30 -13 -37 -34 -10 -29 -10 -29 29 -29 29 0 42
5 50 19 14 27 13 51 -2 50 -7 -1 -25 -4 -40 -6z"/>
<path d="M2997 10543 c-3 -4 -1 -18 4 -31 7 -18 15 -23 36 -20 22 2 28 8 28
28 0 21 -5 26 -32 28 -17 2 -33 -1 -36 -5z"/>
<path d="M3110 10520 c0 -5 -7 -10 -15 -10 -18 0 -18 -5 -5 -31 14 -25 46 -24
60 2 9 15 8 24 -1 35 -13 16 -39 19 -39 4z"/>
<path d="M2922 10484 c-11 -20 -4 -54 12 -54 23 0 38 18 34 41 -4 29 -33 37
-46 13z"/>
<path d="M2687 10478 c-14 -11 -15 -17 -4 -37 17 -33 29 -35 50 -5 32 43 -3
74 -46 42z"/>
<path d="M2546 10447 c-19 -14 -14 -37 12 -54 14 -8 23 -7 42 7 24 18 24 19 6
39 -22 24 -35 26 -60 8z"/>
<path d="M2777 10382 c-21 -23 -22 -46 -1 -63 14 -11 18 -10 30 6 18 24 18 75
1 75 -8 0 -21 -8 -30 -18z"/>
<path d="M3018 10393 c-26 -7 -22 -37 6 -52 31 -17 46 -7 46 30 0 30 -9 33
-52 22z"/>
<path d="M2635 10331 c-6 -20 3 -51 16 -51 4 0 15 10 24 22 14 21 14 24 -2 35
-23 17 -31 16 -38 -6z"/>
<path d="M2908 10339 c-11 -6 -18 -22 -18 -39 0 -27 3 -30 31 -30 29 0 30 2
27 37 -3 40 -13 48 -40 32z"/>
<path d="M2709 10239 c-9 -17 -8 -25 5 -37 22 -22 50 -5 54 32 3 22 0 26 -22
26 -16 0 -30 -8 -37 -21z"/>
<path d="M3120 10236 c0 -17 7 -26 25 -30 33 -8 45 -1 45 30 0 21 -5 24 -35
24 -30 0 -35 -3 -35 -24z"/>
<path d="M3225 10220 c-8 -26 33 -64 53 -48 21 18 14 48 -14 58 -33 13 -32 13
-39 -10z"/>
<path d="M3011 10219 c-15 -6 -21 -14 -17 -25 3 -9 6 -20 6 -25 0 -6 5 -7 10
-4 6 4 17 1 25 -5 18 -15 29 5 23 41 -4 27 -15 31 -47 18z"/>
<path d="M2580 10201 c0 -5 -2 -15 -5 -23 -7 -18 6 -34 32 -42 18 -6 22 -2 28
25 5 22 3 34 -6 40 -18 12 -49 11 -49 0z"/>
<path d="M2830 10183 c0 -21 7 -31 27 -40 32 -15 43 -5 43 40 0 24 -3 27 -35
27 -32 0 -35 -3 -35 -27z"/>
<path d="M2946 10124 c-12 -12 -13 -20 -6 -35 19 -35 60 -16 60 28 0 27 -30
31 -54 7z"/>
<path d="M3186 10104 c-4 -15 -6 -27 -4 -28 2 -1 11 -7 20 -14 14 -11 19 -10
33 11 19 30 10 57 -20 57 -16 0 -25 -7 -29 -26z"/>
<path d="M2652 10084 c4 -34 34 -56 48 -34 18 27 7 55 -23 58 -26 3 -28 1 -25
-24z"/>
<path d="M2798 10085 c-23 -31 -23 -30 12 -45 50 -21 80 18 42 53 -25 22 -34
21 -54 -8z"/>
<path d="M3085 10070 c-24 -26 -13 -50 24 -50 23 0 30 5 35 27 11 42 -27 58
-59 23z"/>
<path d="M3232 10021 c-25 -16 -10 -46 23 -46 25 0 30 4 30 25 0 27 -28 38
-53 21z"/>
<path d="M2895 9994 c-15 -15 -15 -18 1 -35 23 -25 50 -24 57 3 11 42 -27 63
-58 32z"/>
<path d="M2570 9952 c0 -11 9 -27 21 -38 20 -18 21 -18 35 1 26 35 18 55 -21
55 -27 0 -35 -4 -35 -18z"/>
<path d="M3035 9960 c-10 -16 5 -70 19 -70 7 0 20 6 30 13 26 19 12 67 -19 67
-13 0 -27 -5 -30 -10z"/>
<path d="M3147 9947 c-26 -21 -27 -23 -12 -44 19 -28 23 -28 54 -2 21 17 22
23 13 44 -14 31 -20 31 -55 2z"/>
<path d="M2729 9919 c-9 -17 -7 -25 12 -45 28 -30 49 -16 49 32 0 29 -3 34
-25 34 -14 0 -29 -8 -36 -21z"/>
<path d="M2862 9834 c2 -23 9 -30 31 -32 23 -3 27 0 27 22 0 16 -6 26 -14 26
-8 0 -22 3 -31 6 -13 6 -16 1 -13 -22z"/>
<path d="M2996 9822 c-8 -13 21 -49 44 -55 15 -4 22 1 26 18 3 13 3 29 -1 34
-7 13 -62 15 -69 3z"/>
<path d="M3096 9814 c-13 -34 -7 -44 29 -44 27 0 35 4 35 18 0 37 -52 58 -64
26z"/>
<path d="M3207 9824 c-17 -18 12 -54 44 -54 16 0 20 6 17 28 -2 20 -9 28 -28
30 -14 2 -29 0 -33 -4z"/>
<path d="M2558 9798 c-15 -19 -16 -25 -4 -42 19 -29 39 -26 50 6 7 19 6 31 -4
42 -16 21 -22 20 -42 -6z"/>
<path d="M2700 9731 c-15 -29 -13 -37 16 -50 34 -15 44 -7 44 35 0 29 -3 34
-25 34 -14 0 -29 -8 -35 -19z"/>
<path d="M3217 9702 c-16 -17 -16 -20 3 -40 37 -39 65 -26 51 24 -9 35 -31 42
-54 16z"/>
<path d="M2828 9683 c-7 -32 3 -53 25 -53 33 0 45 12 44 43 -2 23 -6 27 -33
27 -22 0 -33 -5 -36 -17z"/>
<path d="M2988 9693 c-19 -5 -25 -47 -9 -57 5 -3 23 -3 40 0 24 5 31 12 31 29
0 13 -7 26 -16 29 -17 6 -19 6 -46 -1z"/>
<path d="M3075 9672 c-14 -14 -3 -48 20 -59 22 -10 27 -8 36 9 6 11 8 25 6 32
-6 14 -53 27 -62 18z"/>
<path d="M2524 9656 c-11 -29 1 -51 29 -54 32 -4 44 16 27 47 -12 24 -48 28
-56 7z"/>
<path d="M2703 9622 c-22 -3 -37 -39 -28 -64 3 -8 16 -15 29 -16 31 -2 58 52
35 72 -8 7 -24 10 -36 8z"/>
<path d="M2483 9573 c-32 -6 -36 -31 -8 -49 21 -13 28 -14 41 -4 16 14 16 52
-1 55 -5 1 -20 0 -32 -2z"/>
<path d="M3219 9533 c-8 -22 -7 -30 7 -40 27 -19 43 -16 56 12 8 19 8 28 -2
40 -20 24 -49 18 -61 -12z"/>
<path d="M2800 9515 c-19 -23 -4 -47 27 -43 22 2 29 9 31 31 3 23 0 27 -21 27
-14 0 -30 -7 -37 -15z"/>
<path d="M2963 9523 c-7 -2 -13 -15 -13 -28 0 -29 36 -44 56 -23 12 12 12 17
-2 36 -16 23 -20 24 -41 15z"/>
<path d="M3077 9513 c-22 -21 11 -64 43 -56 24 6 27 48 4 57 -20 8 -39 8 -47
-1z"/>
<path d="M2557 9444 c-10 -14 -15 -29 -12 -34 14 -22 65 -3 65 25 0 5 -8 15
-18 21 -14 9 -21 7 -35 -12z"/>
<path d="M2680 9462 c0 -6 -2 -17 -6 -25 -5 -15 51 -45 63 -33 14 13 -12 61
-35 64 -12 2 -22 -1 -22 -6z"/>
<path d="M3192 9448 c-9 -9 -8 -16 5 -30 31 -35 74 -17 53 22 -12 22 -40 26
-58 8z"/>
<path d="M2458 9403 c-11 -13 -13 -25 -7 -40 12 -32 47 -30 55 2 12 50 -17 73
-48 38z"/>
<path d="M2903 9390 c-10 -26 -9 -32 7 -40 33 -18 41 -12 38 27 -4 48 -29 55
-45 13z"/>
<path d="M3066 9364 c-23 -23 -19 -43 10 -50 17 -4 29 -2 35 7 14 22 11 46 -7
53 -21 8 -20 8 -38 -10z"/>
<path d="M3307 9366 c-12 -30 4 -56 34 -56 24 0 29 4 29 25 0 18 -7 28 -26 35
-32 13 -31 13 -37 -4z"/>
<path d="M2790 9350 c0 -5 -6 -10 -14 -10 -9 0 -12 -8 -8 -25 6 -35 49 -35 58
-1 3 14 3 30 -1 35 -8 14 -35 14 -35 1z"/>
<path d="M3160 9304 c0 -23 3 -25 33 -22 24 2 33 8 35 26 3 19 -1 22 -32 22
-32 0 -36 -3 -36 -26z"/>
<path d="M2662 9298 c-15 -15 -16 -45 -2 -53 17 -10 50 5 50 24 0 16 -18 41
-30 41 -3 0 -11 -5 -18 -12z"/>
<path d="M2537 9293 c-12 -11 -8 -40 6 -52 18 -14 52 21 44 44 -6 15 -38 21
-50 8z"/>
<path d="M2430 9271 c-17 -32 -13 -71 8 -71 24 0 38 12 46 38 14 43 -33 71
-54 33z"/>
<path d="M2882 9250 c-24 -53 6 -92 41 -52 13 15 14 21 2 50 -17 40 -26 40
-43 2z"/>
<path d="M3015 9234 c-15 -11 -17 -18 -9 -32 16 -25 41 -26 53 -3 12 22 5 51
-13 51 -6 0 -20 -7 -31 -16z"/>
<path d="M3162 9218 c-17 -17 -15 -32 8 -53 22 -20 22 -20 37 15 16 37 -17 66
-45 38z"/>
<path d="M3277 9223 c-4 -3 -7 -24 -7 -45 0 -33 3 -38 24 -38 26 0 36 16 36
61 0 24 -4 29 -23 29 -13 0 -27 -3 -30 -7z"/>
<path d="M2752 9168 c-7 -7 -12 -23 -12 -36 0 -20 4 -23 28 -20 22 2 28 8 30
36 3 26 0 32 -15 32 -11 0 -24 -5 -31 -12z"/>
<path d="M2520 9156 c-16 -20 -9 -60 12 -64 19 -4 32 29 23 58 -8 24 -18 25
-35 6z"/>
<path d="M2643 9144 c-7 -20 8 -48 29 -52 19 -4 31 24 23 49 -8 23 -43 25 -52
3z"/>
<path d="M3399 9123 c-2 -21 2 -47 6 -51 2 -2 13 -1 24 3 25 8 29 50 5 59 -25
10 -34 7 -35 -11z"/>
<path d="M2277 9113 c-4 -3 -7 -17 -7 -30 0 -19 5 -23 29 -23 21 0 30 6 34 22
3 12 4 25 1 30 -6 10 -48 11 -57 1z"/>
<path d="M2981 9088 c-12 -33 -3 -48 29 -48 32 0 45 22 30 51 -15 26 -49 24
-59 -3z"/>
<path d="M2872 9088 c-18 -18 -14 -46 8 -58 28 -15 40 -5 40 36 0 26 -4 34
-18 34 -10 0 -23 -5 -30 -12z"/>
<path d="M2382 9063 c-21 -39 -15 -53 22 -53 28 0 34 4 38 25 4 21 1 25 -18
25 -12 0 -24 6 -26 12 -3 8 -9 5 -16 -9z"/>
<path d="M3133 9063 c-30 -6 -30 -37 -1 -57 20 -14 23 -14 35 4 16 22 14 52
-2 55 -5 1 -20 0 -32 -2z"/>
<path d="M3245 9039 c-8 -25 7 -39 43 -39 20 0 23 4 20 28 -4 36 -52 45 -63
11z"/>
<path d="M2466 8996 c-14 -28 -14 -32 1 -43 23 -18 43 -16 43 2 0 9 6 18 14
21 22 8 4 47 -22 49 -15 1 -26 -8 -36 -29z"/>
<path d="M3375 9011 c-10 -34 4 -63 28 -59 18 2 22 10 22 38 0 28 -4 36 -22
38 -14 2 -23 -3 -28 -17z"/>
<path d="M2732 8998 c-11 -11 -17 -58 -8 -58 2 0 11 -2 19 -6 16 -6 43 48 32
65 -8 14 -28 14 -43 -1z"/>
<path d="M2226 8964 c-6 -17 9 -54 23 -54 9 0 21 33 21 58 0 18 -37 15 -44 -4z"/>
<path d="M2610 8960 l-21 -21 26 -21 c31 -25 48 -14 43 28 -4 36 -21 41 -48
14z"/>
<path d="M2956 8958 c-11 -42 -7 -49 20 -46 38 4 55 35 30 54 -28 20 -43 18
-50 -8z"/>
<path d="M2848 8929 c-35 -20 -15 -49 33 -49 24 0 27 45 3 54 -19 7 -15 8 -36
-5z"/>
<path d="M3176 8903 c-6 -16 26 -52 46 -53 11 0 21 47 13 59 -10 17 -52 13
-59 -6z"/>
<path d="M3348 8913 c-38 -10 -13 -63 30 -63 20 0 23 4 20 32 -3 33 -15 41
-50 31z"/>
<path d="M3429 8904 c-15 -19 -2 -47 26 -52 21 -5 35 14 35 46 0 17 -6 22 -24
22 -13 0 -29 -7 -37 -16z"/>
<path d="M2990 8868 c0 -7 -3 -23 -6 -35 -5 -19 -2 -23 18 -23 42 0 68 50 32
64 -25 10 -44 7 -44 -6z"/>
<path d="M2686 8854 c-10 -27 -7 -32 29 -36 38 -4 54 14 34 38 -16 19 -55 18
-63 -2z"/>
<path d="M2191 8841 c-18 -33 -13 -51 14 -51 20 0 25 5 25 24 0 13 -6 29 -14
35 -12 10 -17 8 -25 -8z"/>
<path d="M2352 8848 c-16 -16 -15 -33 4 -49 8 -7 13 -21 11 -31 -9 -33 65 -54
77 -22 11 29 6 43 -16 46 -18 2 -24 11 -26 36 -3 34 -27 43 -50 20z"/>
<path d="M3494 8835 c-10 -25 4 -45 30 -45 20 0 23 4 18 23 -9 36 -38 49 -48
22z"/>
<path d="M2877 8818 c-4 -12 -1 -28 5 -36 10 -12 15 -10 30 8 14 17 16 26 7
36 -17 21 -36 17 -42 -8z"/>
<path d="M3108 8829 c-14 -8 -15 -14 -6 -35 9 -19 18 -24 37 -22 21 2 27 9 29
36 3 28 0 32 -20 32 -13 0 -31 -5 -40 -11z"/>
<path d="M2544 8820 c-30 -12 -37 -26 -24 -50 9 -16 15 -18 30 -10 17 9 20 7
20 -9 0 -56 41 -71 58 -21 9 25 8 30 -8 35 -10 3 -23 19 -29 35 -11 32 -14 33
-47 20z"/>
<path d="M2762 8753 c3 -10 7 -25 9 -33 3 -11 -10 -16 -51 -21 -30 -4 -69 -12
-87 -17 -17 -6 -34 -8 -36 -6 -3 3 -18 -9 -35 -26 -17 -16 -39 -30 -50 -30
-11 0 -39 -16 -62 -35 -23 -19 -47 -35 -52 -35 -11 0 -122 -113 -163 -165 -13
-16 -46 -70 -75 -120 -28 -49 -58 -96 -67 -102 -22 -17 -91 -238 -106 -335 -9
-65 -14 -78 -34 -87 -22 -10 -25 -30 -14 -69 1 -1 12 5 26 14 21 14 32 15 71
5 38 -10 62 -9 136 5 84 17 91 17 118 1 24 -14 80 -24 80 -14 0 2 7 54 15 115
15 115 39 179 88 238 13 16 28 40 32 53 4 13 20 35 35 47 15 13 47 51 71 84
31 42 54 63 79 71 19 7 55 22 80 34 25 12 74 27 109 33 36 7 69 16 74 21 14
14 9 291 -5 308 -7 8 -35 13 -79 13 l-69 0 2 32 c3 28 -1 34 -21 36 -19 3 -23
0 -19 -15z m60 -120 c23 -4 44 -1 53 7 22 18 35 -25 34 -108 -1 -90 -10 -118
-35 -114 -11 1 -49 -6 -85 -18 -35 -11 -72 -20 -82 -20 -23 0 -184 -155 -244
-235 -72 -95 -133 -239 -133 -317 0 -16 -4 -28 -10 -28 -5 0 -10 -6 -10 -14 0
-14 -24 -18 -192 -32 l-78 -7 0 51 c0 101 75 277 198 467 113 173 350 365 460
371 24 2 47 6 50 9 3 3 13 3 21 -1 9 -3 33 -8 53 -11z"/>
<path d="M3032 8758 c-7 -7 -12 -22 -12 -35 0 -19 5 -23 30 -23 28 0 30 3 30
35 0 27 -4 35 -18 35 -10 0 -23 -5 -30 -12z"/>
<path d="M3473 8743 c-17 -6 -16 -23 1 -46 18 -23 46 -12 46 18 0 18 -22 40
-33 34 -1 0 -8 -3 -14 -6z"/>
<path d="M2259 8682 c-21 -4 -43 -46 -36 -66 8 -21 20 -20 46 2 16 13 19 23
14 42 -5 16 -14 24 -24 22z"/>
<path d="M2430 8673 c-18 -7 -30 -23 -30 -41 0 -9 11 -12 33 -10 27 2 33 8 35
31 3 27 -6 32 -38 20z"/>
<path d="M3030 8597 c0 -31 4 -34 40 -29 25 4 30 9 28 26 -2 16 -11 22 -35 24
-29 3 -33 0 -33 -21z"/>
<path d="M2284 8565 c-5 -19 -1 -30 12 -40 27 -21 39 -13 39 26 0 27 -4 35
-22 37 -17 3 -24 -3 -29 -23z"/>
<path d="M2131 8536 c-15 -28 -8 -46 19 -46 23 0 37 49 18 61 -19 13 -23 11
-37 -15z"/>
<path d="M3034 8435 c-16 -24 -16 -27 2 -40 26 -19 29 -19 44 9 26 50 -15 78
-46 31z"/>
<path d="M2157 8433 c-12 -3 -17 -12 -15 -26 4 -30 43 -35 58 -7 18 34 3 45
-43 33z"/>
<path d="M2027 8423 c-14 -13 -7 -43 9 -43 16 0 43 27 44 43 0 9 -44 9 -53 0z"/>
<path d="M3003 8352 c-27 -4 -30 -24 -7 -46 21 -22 41 -20 47 4 7 26 -13 47
-40 42z"/>
<path d="M3110 8312 c0 -26 20 -42 52 -42 23 0 28 4 28 24 0 16 -7 26 -22 30
-40 10 -58 7 -58 -12z"/>
<path d="M2058 8303 c-2 -10 -2 -26 0 -35 5 -25 49 -23 62 1 8 16 6 23 -12 35
-29 21 -45 20 -50 -1z"/>
<path d="M2877 8281 c-16 -17 -16 -19 4 -37 20 -18 21 -18 35 1 30 40 -4 72
-39 36z"/>
<path d="M2677 8229 c-8 -29 2 -49 24 -49 28 0 43 35 23 54 -21 22 -41 20 -47
-5z"/>
<path d="M2984 8228 c3 -13 6 -27 6 -31 0 -5 15 -7 33 -5 27 2 33 8 35 31 3
26 1 27 -39 27 -38 0 -41 -2 -35 -22z"/>
<path d="M3193 8196 c-29 -13 -29 -31 -2 -49 38 -27 90 4 69 42 -12 23 -32 25
-67 7z"/>
<path d="M1972 8178 c-7 -7 -12 -25 -12 -40 0 -35 23 -37 45 -4 25 38 -2 75
-33 44z"/>
<path d="M2777 8183 c-13 -13 -7 -51 10 -57 19 -8 33 9 33 42 0 21 -27 31 -43
15z"/>
<path d="M3380 8159 c-16 -28 -5 -49 24 -49 30 0 40 14 32 46 -8 30 -41 32
-56 3z"/>
<path d="M2920 8155 c-14 -17 -4 -55 14 -55 22 0 34 23 25 48 -10 26 -22 28
-39 7z"/>
<path d="M2557 8090 c-21 -25 -21 -34 -2 -50 12 -10 20 -9 40 4 30 20 32 41 6
56 -25 13 -24 13 -44 -10z"/>
<path d="M3076 8074 c-23 -22 -20 -39 9 -52 21 -10 27 -8 45 15 15 20 17 29 9
39 -15 19 -44 18 -63 -2z"/>
<path d="M2701 8059 c-20 -16 -23 -24 -14 -37 5 -9 22 -18 36 -20 21 -3 30 3
38 22 24 52 -14 74 -60 35z"/>
<path d="M3485 8039 c-12 -36 2 -56 35 -51 46 7 39 47 -12 65 -11 4 -19 0 -23
-14z"/>
<path d="M1900 8028 c0 -13 5 -30 10 -38 14 -21 45 0 45 31 0 19 -6 25 -27 27
-24 3 -28 0 -28 -20z"/>
<path d="M2847 8035 c-13 -9 -17 -20 -13 -33 8 -25 34 -36 52 -21 19 15 18 33
-3 52 -15 13 -21 13 -36 2z"/>
<path d="M2510 7960 c0 -6 -9 -10 -19 -10 -20 0 -37 -32 -26 -50 3 -5 22 -10
41 -10 32 0 34 2 34 34 0 21 -6 36 -15 40 -8 3 -15 1 -15 -4z"/>
<path d="M2954 7956 c-12 -31 1 -51 30 -49 39 3 54 18 40 41 -14 22 -62 28
-70 8z"/>
<path d="M2643 7939 c-16 -16 -17 -51 -1 -67 16 -16 28 -15 28 3 0 8 5 15 10
15 15 0 12 15 -7 39 -15 18 -20 20 -30 10z"/>
<path d="M3543 7924 c-3 -8 0 -27 6 -40 14 -32 54 -30 59 2 6 40 -51 73 -65
38z"/>
<path d="M1850 7906 c0 -32 13 -46 42 -46 26 0 29 3 26 28 -2 22 -8 28 -35 30
-24 2 -33 -1 -33 -12z"/>
<path d="M2907 7863 c-11 -10 -8 -51 3 -58 16 -10 40 15 40 41 0 17 -6 24 -18
24 -10 0 -22 -3 -25 -7z"/>
<path d="M2768 7849 c-24 -14 -23 -55 1 -62 27 -7 51 38 30 58 -10 10 -19 11
-31 4z"/>
<path d="M3636 7834 c-17 -44 8 -74 48 -58 22 9 20 51 -3 64 -27 14 -38 13
-45 -6z"/>
<path d="M2414 7784 c-9 -36 22 -56 55 -35 12 8 13 14 3 35 -16 35 -49 35 -58
0z"/>
<path d="M2585 7799 c-12 -18 4 -56 24 -62 26 -6 31 0 31 40 0 28 -3 33 -24
33 -14 0 -28 -5 -31 -11z"/>
<path d="M1840 7767 c0 -29 18 -47 47 -47 17 0 23 6 23 23 0 29 -18 47 -47 47
-17 0 -23 -6 -23 -23z"/>
<path d="M3087 7763 c-25 -25 21 -75 47 -51 10 10 11 19 3 35 -10 22 -36 30
-50 16z"/>
<path d="M2820 7680 c0 -25 4 -30 24 -30 29 0 47 37 25 51 -30 19 -49 10 -49
-21z"/>
<path d="M2194 7676 c-16 -41 20 -72 52 -45 13 10 12 15 -7 36 -26 27 -37 29
-45 9z"/>
<path d="M2666 7681 c-11 -18 6 -42 28 -39 29 4 29 42 -1 46 -11 2 -24 -1 -27
-7z"/>
<path d="M1802 7649 c-16 -25 -1 -49 30 -49 24 0 33 23 18 49 -14 27 -32 27
-48 0z"/>
<path d="M2367 7663 c-9 -9 -9 -51 1 -56 11 -7 52 11 52 22 0 11 -28 41 -39
41 -4 0 -11 -3 -14 -7z"/>
<path d="M3639 7644 c-17 -21 0 -49 31 -49 31 0 48 28 31 49 -8 9 -21 16 -31
16 -10 0 -23 -7 -31 -16z"/>
<path d="M2950 7609 c0 -19 25 -49 41 -49 5 0 9 6 9 14 0 8 6 16 13 19 20 7
-10 35 -38 35 -17 0 -25 -6 -25 -19z"/>
<path d="M2130 7595 c0 -29 27 -45 41 -24 14 22 6 44 -19 47 -18 3 -22 -1 -22
-23z"/>
<path d="M2770 7605 c0 -23 22 -65 35 -65 16 0 45 33 45 52 0 15 -28 28 -62
28 -10 0 -18 -7 -18 -15z"/>
<path d="M3377 7614 c-24 -24 13 -72 42 -55 20 13 9 56 -14 59 -12 2 -24 0
-28 -4z"/>
<path d="M1939 7583 c-16 -29 -15 -63 2 -63 19 0 50 42 47 63 -4 32 -31 32
-49 0z"/>
<path d="M2015 7569 c-5 -14 -1 -27 10 -38 15 -15 18 -14 35 7 23 28 16 52
-15 52 -15 0 -26 -8 -30 -21z"/>
<path d="M3730 7573 c0 -9 7 -25 16 -34 16 -17 15 -19 -10 -28 -31 -13 -35
-46 -6 -61 29 -16 40 -4 40 40 0 21 5 42 10 45 6 3 10 17 10 31 0 20 -5 24
-30 24 -21 0 -30 -5 -30 -17z"/>
<path d="M3871 7576 c-9 -11 -10 -20 -1 -35 6 -12 14 -21 19 -21 15 0 53 49
46 59 -9 16 -51 13 -64 -3z"/>
<path d="M2248 7562 c-4 -14 3 -24 23 -36 27 -16 28 -15 43 6 18 26 13 33 -30
42 -26 6 -32 4 -36 -12z"/>
<path d="M2533 7562 c-29 -3 -33 -7 -33 -33 0 -29 2 -30 38 -27 30 2 38 7 40
27 5 30 -5 37 -45 33z"/>
<path d="M1737 7553 c-4 -3 -7 -17 -7 -30 0 -18 5 -23 25 -23 21 0 25 5 25 30
0 22 -5 30 -18 30 -10 0 -22 -3 -25 -7z"/>
<path d="M2340 7542 c0 -20 29 -52 47 -52 15 0 25 29 18 51 -9 27 -65 27 -65
1z"/>
<path d="M3555 7530 c-25 -28 -13 -50 30 -50 30 0 35 3 35 23 0 45 -35 60 -65
27z"/>
<path d="M1810 7508 c0 -26 26 -52 44 -45 29 11 16 51 -16 55 -19 2 -28 -1
-28 -10z"/>
<path d="M3397 7504 c-13 -13 -7 -51 9 -65 13 -10 17 -10 25 2 21 33 -8 88
-34 63z"/>
<path d="M2631 7487 c-9 -11 -7 -20 8 -38 22 -27 39 -19 43 21 2 19 -2 26 -18
28 -11 2 -26 -3 -33 -11z"/>
<path d="M3237 7485 c-19 -13 -16 -55 3 -55 5 0 15 -3 24 -6 20 -8 33 40 16
61 -15 18 -20 18 -43 0z"/>
<path d="M2865 7479 c-11 -17 4 -59 20 -59 22 0 40 51 23 62 -18 11 -36 10
-43 -3z"/>
<path d="M2001 7449 c-16 -46 -14 -49 20 -49 29 0 30 2 27 37 -4 50 -31 57
-47 12z"/>
<path d="M3070 7450 c0 -28 3 -30 35 -30 19 0 35 5 35 11 0 25 -22 49 -45 49
-21 0 -25 -5 -25 -30z"/>
<path d="M1896 7448 c-21 -30 -20 -45 4 -58 15 -8 21 -6 30 9 15 29 13 71 -4
71 -8 0 -22 -10 -30 -22z"/>
<path d="M3841 7456 c-9 -11 -9 -19 1 -35 15 -24 18 -25 53 -9 16 7 25 19 25
35 0 20 -5 23 -34 23 -18 0 -39 -6 -45 -14z"/>
<path d="M2100 7424 c0 -8 -4 -12 -10 -9 -17 10 -11 -4 10 -25 11 -11 24 -20
30 -20 12 0 24 45 15 59 -10 17 -45 13 -45 -5z"/>
<path d="M2962 7428 c-7 -7 -12 -22 -12 -34 0 -25 28 -53 38 -38 4 6 15 13 25
17 11 4 17 17 17 37 0 26 -3 30 -28 30 -15 0 -33 -5 -40 -12z"/>
<path d="M1692 7418 c-17 -17 -15 -55 3 -62 17 -6 35 22 35 53 0 23 -19 28
-38 9z"/>
<path d="M2184 7406 c-3 -8 -4 -25 -2 -38 5 -34 40 -31 49 5 5 20 4 27 -7 27
-8 0 -14 5 -14 10 0 15 -20 12 -26 -4z"/>
<path d="M2450 7385 c0 -32 2 -35 30 -35 23 0 31 5 36 24 8 34 -2 46 -37 46
-27 0 -29 -3 -29 -35z"/>
<path d="M3510 7399 c-7 -11 -9 -27 -6 -35 8 -22 49 -17 65 8 12 19 11 23 -5
35 -25 18 -42 16 -54 -8z"/>
<path d="M3700 7410 c0 -5 -9 -10 -20 -10 -26 0 -27 -36 -1 -50 28 -15 39 -13
51 10 8 14 7 25 -2 40 -14 21 -28 27 -28 10z"/>
<path d="M2337 7393 c-14 -14 -6 -42 14 -48 30 -10 57 18 39 39 -13 16 -42 21
-53 9z"/>
<path d="M1786 7368 c-10 -40 -7 -50 17 -46 17 2 23 11 25 36 3 26 0 32 -16
32 -12 0 -22 -9 -26 -22z"/>
<path d="M2597 7372 c-29 -32 -16 -52 34 -52 15 0 19 7 19 35 0 27 -4 35 -18
35 -11 0 -26 -8 -35 -18z"/>
<path d="M2732 7378 c-20 -20 -15 -55 10 -61 26 -7 39 8 36 43 -3 28 -27 37
-46 18z"/>
<path d="M3351 7353 c-18 -19 -4 -47 26 -51 28 -4 38 26 17 49 -20 23 -25 23
-43 2z"/>
<path d="M1992 7338 c-14 -14 -16 -55 -2 -63 10 -6 50 29 50 45 0 17 -36 30
-48 18z"/>
<path d="M2838 7343 c-25 -6 -22 -40 4 -54 18 -10 24 -8 35 7 17 24 16 41 -3
48 -9 3 -16 5 -17 5 -1 -1 -10 -3 -19 -6z"/>
<path d="M3184 7326 c-8 -21 14 -56 35 -56 20 0 31 19 31 51 0 15 -7 19 -30
19 -17 0 -33 -6 -36 -14z"/>
<path d="M3774 7325 c-10 -25 4 -45 31 -45 21 0 25 5 25 30 0 25 -4 30 -25 30
-14 0 -28 -7 -31 -15z"/>
<path d="M3057 7323 c-21 -20 7 -63 41 -63 16 0 23 30 12 51 -10 19 -40 26
-53 12z"/>
<path d="M3616 7294 c-21 -20 -20 -27 4 -49 20 -18 21 -18 41 3 21 24 19 36
-11 52 -14 7 -23 6 -34 -6z"/>
<path d="M1870 7264 c0 -8 5 -24 11 -35 10 -20 11 -20 30 -3 30 27 25 54 -11
54 -21 0 -30 -5 -30 -16z"/>
<path d="M2285 7260 c-8 -25 10 -50 36 -50 15 0 19 7 19 35 0 30 -3 35 -24 35
-16 0 -27 -7 -31 -20z"/>
<path d="M2890 7259 c-16 -29 -5 -49 25 -49 27 0 32 18 15 51 -14 25 -27 24
-40 -2z"/>
<path d="M1760 7251 c-10 -19 -4 -51 9 -51 15 0 40 26 43 44 4 27 -38 32 -52
7z"/>
<path d="M3428 7263 c-22 -6 -23 -27 -2 -47 21 -22 54 -4 54 29 0 25 -11 29
-52 18z"/>
<path d="M2122 7248 c-17 -17 -15 -39 5 -53 22 -16 43 3 43 39 0 28 -26 36
-48 14z"/>
<path d="M2406 7237 c-30 -30 -32 -40 -11 -57 36 -30 86 33 52 67 -14 14 -18
13 -41 -10z"/>
<path d="M3298 7249 c-34 -19 -11 -69 30 -69 15 0 22 41 11 62 -11 20 -17 22
-41 7z"/>
<path d="M2682 7238 c-7 -7 -12 -22 -12 -35 0 -20 5 -23 35 -23 30 0 35 3 35
23 0 24 -17 47 -35 47 -6 0 -16 -5 -23 -12z"/>
<path d="M2560 7210 c0 -27 3 -30 34 -30 26 0 35 5 39 22 7 26 -7 38 -45 38
-24 0 -28 -4 -28 -30z"/>
<path d="M3029 7216 c-10 -20 -9 -28 5 -42 22 -22 39 -6 34 32 -4 36 -25 42
-39 10z"/>
<path d="M1983 7209 c-7 -7 -13 -23 -13 -35 0 -36 22 -46 42 -19 17 22 17 24
0 45 -14 17 -19 19 -29 9z"/>
<path d="M2790 7206 c-18 -22 5 -48 39 -44 20 2 26 9 26 28 0 19 -6 26 -26 28
-14 2 -31 -4 -39 -12z"/>
<path d="M2239 7144 c-16 -44 -8 -69 24 -72 25 -3 27 -1 27 37 0 30 -5 43 -20
51 -17 9 -22 7 -31 -16z"/>
<path d="M1761 7128 c-12 -19 -11 -24 9 -40 32 -26 40 -23 40 16 0 28 -13 46
-33 46 -1 0 -8 -10 -16 -22z"/>
<path d="M2773 7128 c-26 -12 -29 -28 -11 -46 29 -29 64 4 50 46 -4 14 -10 14
-39 0z"/>
<path d="M2515 7094 c-9 -14 -15 -27 -13 -29 15 -13 50 -25 58 -20 22 13 4 75
-21 75 -4 0 -14 -12 -24 -26z"/>
<path d="M2850 7085 c0 -32 3 -36 23 -33 17 2 22 10 22 33 0 23 -5 31 -22 33
-20 3 -23 -1 -23 -33z"/>
<path d="M2334 7085 c-8 -19 22 -49 41 -41 8 3 15 17 15 31 0 20 -5 25 -25 25
-14 0 -28 -7 -31 -15z"/>
<path d="M2965 7080 c-9 -28 13 -52 44 -48 37 4 39 34 2 52 -38 20 -38 20 -46
-4z"/>
<path d="M1683 6943 c-17 -6 -16 -34 0 -57 12 -16 13 -16 29 1 11 13 13 24 7
41 -8 22 -14 25 -36 15z"/>
<path d="M1743 6652 c-9 -6 -9 -13 0 -32 18 -34 34 -35 51 -2 14 27 14 31 0
36 -21 8 -36 7 -51 -2z"/>
<path d="M1642 6628 c2 -17 11 -24 31 -26 15 -2 27 1 27 7 0 25 -14 41 -37 41
-20 0 -24 -4 -21 -22z"/>
<path d="M1580 6560 c0 -16 4 -30 9 -30 25 0 41 14 41 36 0 19 -5 24 -25 24
-21 0 -25 -5 -25 -30z"/>
<path d="M1655 6508 c-17 -21 -17 -22 5 -40 17 -14 26 -16 36 -7 20 16 17 47
-4 58 -14 8 -23 5 -37 -11z"/>
<path d="M1685 6400 c-12 -20 4 -62 23 -58 23 4 24 61 0 66 -9 2 -19 -2 -23
-8z"/>
<path d="M1585 6380 c-9 -14 3 -47 20 -53 18 -7 38 17 33 40 -4 20 -42 30 -53
13z"/>
<path d="M1674 6276 c-7 -31 1 -46 27 -46 17 0 20 6 17 32 -4 42 -34 51 -44
14z"/>
<path d="M1766 6174 c-12 -31 -7 -45 17 -42 30 4 39 58 9 58 -11 0 -23 -7 -26
-16z"/>
<path d="M1672 6113 c2 -20 9 -29 26 -31 20 -3 23 0 20 25 -2 20 -9 29 -26 31
-20 3 -23 0 -20 -25z"/>
<path d="M1594 6106 c-10 -26 1 -51 21 -51 23 0 32 30 15 50 -16 19 -29 19
-36 1z"/>
<path d="M1690 6006 c0 -29 37 -47 51 -25 15 24 5 44 -24 47 -23 3 -27 0 -27
-22z"/>
<path d="M1772 6008 c-14 -17 7 -63 28 -63 22 0 21 69 -1 73 -9 1 -21 -3 -27
-10z"/>
<path d="M1600 5916 c0 -15 7 -26 20 -29 13 -3 20 0 20 9 0 8 5 14 11 14 8 0
8 5 -1 15 -20 24 -50 19 -50 -9z"/>
<path d="M1711 5918 c-12 -19 -11 -23 5 -35 22 -16 38 -12 42 11 4 16 -14 46
-27 46 -3 0 -12 -10 -20 -22z"/>
<path d="M1750 5804 c-15 -37 -13 -44 13 -44 34 0 47 17 33 46 -14 31 -34 31
-46 -2z"/>
<path d="M1662 5775 c-11 -23 -9 -27 11 -34 17 -7 25 -4 34 13 10 17 9 23 -4
34 -23 17 -28 15 -41 -13z"/>
<path d="M1600 5765 c-17 -21 -8 -50 18 -53 18 -3 22 1 22 26 0 33 -22 48 -40
27z"/>
<path d="M1749 5674 c-5 -15 -8 -28 -7 -29 15 -12 47 -23 52 -18 13 13 6 61
-10 67 -23 9 -24 8 -35 -20z"/>
<path d="M1670 5663 c-8 -3 -18 -11 -22 -17 -8 -13 19 -46 38 -46 20 0 34 33
23 53 -10 18 -15 19 -39 10z"/>
<path d="M1768 5559 c-24 -13 -23 -41 2 -57 18 -11 22 -9 31 12 12 25 7 56 -8
56 -4 0 -16 -5 -25 -11z"/>
<path d="M1765 5440 c-10 -15 4 -47 23 -55 23 -9 44 22 31 46 -10 20 -44 26
-54 9z"/>
<path d="M1675 5330 c-4 -12 -1 -27 5 -35 10 -12 14 -11 29 2 22 19 16 53 -9
53 -10 0 -22 -9 -25 -20z"/>
<path d="M1780 5305 c-15 -29 -13 -34 21 -37 21 -3 24 1 24 27 0 38 -26 45
-45 10z"/>
<path d="M1691 5216 c-20 -24 -9 -51 22 -54 27 -3 28 -1 25 30 -3 36 -27 48
-47 24z"/>
<path d="M1774 5208 c-4 -15 -1 -25 12 -35 36 -27 56 -6 38 41 -9 23 -42 19
-50 -6z"/>
<path d="M1690 5098 c1 -42 52 -51 58 -10 3 19 -1 22 -27 22 -18 0 -31 -5 -31
-12z"/>
<path d="M2153 6293 c-44 -21 -73 -71 -80 -135 -4 -44 -1 -59 19 -87 22 -33
69 -56 95 -46 25 9 35 84 23 168 -17 117 -18 119 -57 100z m11 -144 c6 -29 -7
-69 -22 -69 -4 0 -5 25 -4 55 4 59 15 65 26 14z"/>
<path d="M2090 5859 c-7 -11 -14 -45 -17 -74 -5 -48 -3 -57 22 -87 37 -45 50
-51 77 -36 13 7 25 14 26 15 13 6 21 90 12 123 -18 68 -96 106 -120 59z m70
-84 c0 -14 -4 -25 -10 -25 -5 0 -10 11 -10 25 0 14 5 25 10 25 6 0 10 -11 10
-25z"/>
<path d="M2106 5497 c-23 -17 -11 -47 19 -47 22 0 35 17 35 46 0 17 -30 18
-54 1z"/>
<path d="M2110 5416 c-6 -8 -10 -25 -8 -38 2 -17 10 -23 28 -23 18 0 26 6 28
23 3 22 -13 52 -28 52 -4 0 -13 -7 -20 -14z"/>
<path d="M4670 6480 c-13 -24 2 -60 25 -60 15 0 23 24 17 58 -5 27 -28 29 -42
2z"/>
<path d="M3380 6471 c-13 -25 -2 -53 19 -49 22 4 29 68 7 68 -8 0 -20 -9 -26
-19z"/>
<path d="M3620 6465 c0 -24 3 -26 33 -23 24 2 32 8 32 23 0 15 -8 21 -32 23
-30 3 -33 1 -33 -23z"/>
<path d="M3532 6468 c-7 -7 -12 -22 -12 -35 0 -17 6 -23 23 -23 42 0 66 50 31
64 -22 8 -28 8 -42 -6z"/>
<path d="M4459 6443 c-2 -14 3 -58 7 -62 5 -6 54 28 54 38 0 4 -11 13 -25 19
-30 14 -35 15 -36 5z"/>
<path d="M4798 6438 c-17 -13 -21 -28 -19 -60 1 -13 9 -18 30 -18 31 0 41 14
41 61 0 32 -23 39 -52 17z"/>
<path d="M4889 6403 c-7 -18 -6 -30 1 -37 16 -16 44 6 48 38 5 37 -34 37 -49
-1z"/>
<path d="M3637 6396 c-7 -17 20 -56 38 -56 16 0 31 43 20 59 -9 16 -52 13 -58
-3z"/>
<path d="M3877 6403 c-14 -13 -6 -42 15 -57 26 -18 38 -7 38 37 0 22 -5 27
-23 27 -13 0 -27 -3 -30 -7z"/>
<path d="M4387 6383 c-4 -3 -7 -17 -7 -30 0 -19 5 -23 30 -23 25 0 30 4 30 24
0 28 -35 47 -53 29z"/>
<path d="M4121 6358 c-11 -17 -9 -23 10 -44 21 -22 24 -23 41 -7 25 23 22 40
-10 57 -26 13 -29 13 -41 -6z"/>
<path d="M4235 6369 c-4 -5 -4 -21 -1 -35 5 -17 13 -24 31 -24 22 0 25 4 25
35 0 30 -3 35 -24 35 -14 0 -28 -5 -31 -11z"/>
<path d="M3767 6353 c-4 -3 -7 -19 -7 -35 0 -21 5 -28 19 -28 26 0 34 15 27
46 -6 23 -25 32 -39 17z"/>
<path d="M3520 6335 c-15 -18 -5 -65 13 -65 18 0 37 21 37 42 0 25 -35 42 -50
23z"/>
<path d="M3430 6304 c0 -33 2 -35 28 -32 49 6 40 67 -10 68 -14 0 -18 -8 -18
-36z"/>
<path d="M4513 6328 c-32 -15 -32 -58 0 -58 26 0 54 40 43 59 -9 13 -14 13
-43 -1z"/>
<path d="M4653 6324 c-7 -18 6 -45 25 -52 15 -5 33 33 26 52 -8 21 -43 21 -51
0z"/>
<path d="M4910 6287 c0 -29 3 -33 23 -32 17 1 22 8 22 31 0 22 -5 30 -22 32
-20 3 -23 -1 -23 -31z"/>
<path d="M3690 6288 c-27 -29 -25 -36 13 -46 38 -10 52 5 43 44 -8 30 -29 31
-56 2z"/>
<path d="M3852 6278 c-16 -16 -15 -28 5 -50 15 -17 18 -17 34 -2 17 15 17 18
2 40 -17 27 -24 29 -41 12z"/>
<path d="M4381 6256 c-9 -11 -10 -20 -1 -35 13 -25 26 -26 47 -5 12 12 14 20
6 33 -14 22 -37 25 -52 7z"/>
<path d="M4775 6249 c-4 -5 -4 -21 -1 -35 5 -20 12 -25 34 -22 22 2 28 9 30
36 3 30 1 32 -27 32 -16 0 -33 -5 -36 -11z"/>
<path d="M4224 6235 c-10 -25 4 -45 30 -45 25 0 39 20 30 45 -4 8 -17 15 -30
15 -14 0 -27 -7 -30 -15z"/>
<path d="M3477 6223 c-13 -12 -7 -50 9 -64 19 -16 34 2 34 44 0 20 -5 27 -18
27 -10 0 -22 -3 -25 -7z"/>
<path d="M4122 6183 c2 -17 9 -28 18 -28 9 0 16 11 18 28 3 22 -1 27 -18 27
-17 0 -21 -5 -18 -27z"/>
<path d="M4668 6196 c-23 -17 -23 -29 0 -49 27 -25 32 -21 32 23 0 43 -5 47
-32 26z"/>
<path d="M4391 6137 c-15 -15 -14 -28 6 -56 15 -23 17 -23 30 -6 18 26 16 48
-6 62 -14 9 -21 9 -30 0z"/>
<path d="M3636 6103 c-7 -17 23 -68 40 -68 15 0 17 67 2 76 -20 13 -35 11 -42
-8z"/>
<path d="M3888 6099 c-10 -5 -18 -16 -18 -24 0 -17 27 -45 45 -45 17 0 28 34
20 60 -7 22 -21 25 -47 9z"/>
<path d="M4227 6103 c-12 -11 -7 -50 7 -62 12 -10 17 -8 25 8 17 31 14 61 -7
61 -10 0 -22 -3 -25 -7z"/>
<path d="M3765 6070 c-16 -18 -17 -23 -5 -45 13 -24 15 -24 32 -8 21 19 25 73
5 73 -8 0 -22 -9 -32 -20z"/>
<path d="M4542 6083 c-7 -2 -17 -13 -22 -24 -9 -15 -5 -21 19 -34 29 -15 30
-14 36 15 9 42 -1 56 -33 43z"/>
<path d="M4776 6064 c-10 -9 -15 -23 -12 -31 3 -8 6 -17 6 -19 0 -2 16 -4 36
-4 34 0 35 1 32 33 -4 38 -35 49 -62 21z"/>
<path d="M4660 6037 c0 -13 6 -31 13 -41 12 -16 14 -16 26 -2 19 22 6 66 -19
66 -14 0 -20 -7 -20 -23z"/>
<path d="M4912 6040 c-15 -25 -8 -56 15 -64 21 -9 34 12 31 49 -4 36 -28 44
-46 15z"/>
<path d="M4153 6014 c-10 -27 2 -49 27 -46 31 3 32 5 21 34 -10 26 -40 33 -48
12z"/>
<path d="M4980 5945 c-17 -21 -8 -50 17 -53 17 -3 24 3 29 22 10 42 -19 63
-46 31z"/>
<path d="M3884 5928 c3 -13 6 -27 6 -31 0 -5 15 -7 33 -5 27 2 32 7 32 28 0
22 -5 25 -39 28 -36 3 -38 2 -32 -20z"/>
<path d="M3615 5910 c-4 -6 1 -22 9 -36 13 -19 20 -22 35 -14 21 11 34 37 25
51 -7 12 -61 11 -69 -1z"/>
<path d="M4680 5905 c-19 -23 -8 -50 20 -50 19 0 26 6 28 24 5 35 -26 53 -48
26z"/>
<path d="M3750 5884 c0 -8 5 -24 11 -35 8 -16 13 -18 25 -8 19 15 18 45 -2 53
-25 10 -34 7 -34 -10z"/>
<path d="M4771 5891 c-20 -13 -4 -50 26 -57 28 -8 45 9 41 41 -3 22 -43 32
-67 16z"/>
<path d="M4902 5848 c-6 -6 -12 -23 -12 -36 0 -20 4 -23 33 -20 28 3 32 6 32
33 0 22 -5 31 -20 33 -11 1 -26 -3 -33 -10z"/>
<path d="M4554 5826 c-7 -18 20 -66 37 -66 6 0 9 16 7 37 -3 40 -32 59 -44 29z"/>
<path d="M3890 5801 c0 -21 6 -32 21 -36 28 -9 43 8 35 39 -5 19 -13 26 -31
26 -21 0 -25 -5 -25 -29z"/>
<path d="M3626 5734 c-10 -26 -7 -51 9 -64 12 -10 16 -8 25 15 7 18 7 32 0 46
-13 23 -26 24 -34 3z"/>
<path d="M3768 5743 c-13 -3 -18 -14 -18 -39 0 -19 4 -34 9 -34 26 0 41 15 41
40 0 32 -7 38 -32 33z"/>
<path d="M4653 5739 c-15 -15 7 -59 29 -59 19 0 26 16 20 47 -5 24 -30 31 -49
12z"/>
<path d="M4777 5723 c-4 -3 -7 -17 -7 -30 0 -19 5 -23 29 -23 27 0 40 18 41
53 0 9 -54 9 -63 0z"/>
<path d="M4978 5712 c-25 -5 -23 -48 4 -66 27 -19 38 -12 38 23 0 32 -17 49
-42 43z"/>
<path d="M4886 5675 c-8 -32 9 -65 34 -65 26 0 35 36 16 65 -21 32 -42 32 -50
0z"/>
<path d="M3880 5636 c0 -33 2 -36 31 -36 28 0 30 2 27 33 -2 27 -8 33 -30 35
-26 3 -28 1 -28 -32z"/>
<path d="M4977 5594 c-24 -25 7 -82 39 -70 24 9 15 70 -11 74 -12 2 -24 0 -28
-4z"/>
<path d="M4773 5564 c-12 -19 -14 -30 -6 -43 28 -45 87 -5 64 45 -14 31 -36
30 -58 -2z"/>
<path d="M3641 5554 c-40 -29 -15 -68 28 -44 24 12 28 45 7 53 -7 3 -23 -1
-35 -9z"/>
<path d="M3760 5510 c0 -28 5 -43 16 -47 21 -8 35 15 32 52 -2 23 -9 31 -25
33 -21 3 -23 -1 -23 -38z"/>
<path d="M4880 5506 c-15 -29 -8 -56 15 -56 23 0 41 46 25 65 -17 21 -24 19
-40 -9z"/>
<path d="M3889 5483 c5 -21 14 -29 35 -31 25 -3 27 -1 24 25 -2 23 -8 29 -35
31 -30 3 -31 2 -24 -25z"/>
<path d="M5020 5430 c0 -33 3 -40 20 -40 13 0 22 9 26 25 8 34 -1 55 -26 55
-17 0 -20 -6 -20 -40z"/>
<path d="M4920 5411 c-18 -34 11 -81 37 -59 18 15 16 65 -3 72 -22 8 -22 8
-34 -13z"/>
<path d="M3626 5363 c-3 -8 -6 -25 -6 -37 0 -19 4 -22 31 -18 34 5 47 25 30
46 -17 21 -49 26 -55 9z"/>
<path d="M4802 5368 c-7 -7 -12 -26 -12 -43 0 -27 4 -31 29 -33 22 -2 31 3 36
19 16 50 -20 90 -53 57z"/>
<path d="M3756 5335 c-8 -32 -1 -45 25 -45 15 0 19 7 19 35 0 28 -4 35 -19 35
-12 0 -21 -9 -25 -25z"/>
<path d="M3908 5342 c-10 -2 -19 -12 -19 -23 -1 -10 -2 -24 -3 -31 -1 -6 11
-13 25 -15 34 -4 54 34 30 58 -9 8 -24 14 -33 11z"/>
<path d="M4081 5253 c-10 -23 -9 -29 8 -47 24 -23 29 -20 37 21 5 25 2 33 -14
42 -16 9 -21 6 -31 -16z"/>
<path d="M3642 5228 c-7 -7 -12 -22 -12 -35 0 -19 5 -23 30 -23 28 0 30 3 30
35 0 27 -4 35 -18 35 -10 0 -23 -5 -30 -12z"/>
<path d="M4887 5203 c-13 -12 -7 -40 11 -56 23 -21 42 -5 42 35 0 23 -4 28
-23 28 -13 0 -27 -3 -30 -7z"/>
<path d="M3903 5175 c-20 -22 -15 -39 13 -52 35 -16 44 -9 44 33 0 29 -3 34
-22 34 -13 -1 -29 -7 -35 -15z"/>
<path d="M3767 5153 c-8 -8 -9 -67 -1 -75 13 -13 44 6 44 27 0 23 -32 60 -43
48z"/>
<path d="M4166 5144 c-20 -19 -20 -28 -1 -44 23 -19 45 -4 45 30 0 34 -19 40
-44 14z"/>
<path d="M4068 5116 c-22 -16 -23 -39 -3 -56 19 -16 48 11 43 42 -4 27 -18 31
-40 14z"/>
<path d="M4847 5060 c-6 -25 2 -60 15 -60 21 0 48 22 48 40 0 18 -27 40 -48
40 -5 0 -12 -9 -15 -20z"/>
<path d="M5003 5048 c-24 -30 -23 -53 2 -65 22 -10 27 -8 36 8 22 42 -11 91
-38 57z"/>
<path d="M3945 5029 c-13 -19 4 -59 25 -59 15 0 20 7 20 25 0 27 -34 53 -45
34z"/>
<path d="M3643 5008 c-15 -19 -1 -53 21 -53 23 0 41 27 33 49 -8 19 -40 21
-54 4z"/>
<path d="M4172 5011 c-9 -5 -11 -17 -6 -34 9 -37 50 -38 64 -1 6 14 8 30 4 35
-7 11 -45 12 -62 0z"/>
<path d="M4031 4933 c-13 -25 -1 -42 29 -45 22 -3 25 1 25 27 0 23 -5 31 -22
33 -13 2 -26 -4 -32 -15z"/>
<path d="M3802 4903 c2 -30 7 -39 25 -41 17 -3 24 3 29 22 7 31 -10 56 -38 56
-16 0 -19 -6 -16 -37z"/>
<path d="M4806 4897 c-28 -21 -17 -51 21 -55 25 -2 33 1 38 18 7 22 -9 50 -29
50 -7 0 -20 -6 -30 -13z"/>
<path d="M4962 4898 c-17 -17 -15 -42 6 -61 24 -22 32 -13 32 35 0 39 -15 49
-38 26z"/>
<path d="M3672 4871 c-19 -12 -11 -41 15 -58 21 -14 23 -13 34 10 9 21 9 29
-4 41 -18 18 -26 19 -45 7z"/>
<path d="M4176 4844 c-9 -8 -16 -20 -16 -26 0 -10 40 -47 51 -48 13 0 19 51 9
70 -13 24 -23 25 -44 4z"/>
<path d="M3265 4810 c-16 -51 32 -83 56 -38 10 18 8 24 -11 40 -28 23 -37 23
-45 -2z"/>
<path d="M4926 4789 c-16 -24 -12 -45 11 -54 20 -7 33 11 33 48 0 33 -22 36
-44 6z"/>
<path d="M4036 4787 c-13 -10 -16 -20 -12 -35 9 -26 28 -28 50 -6 19 19 20 26
4 42 -15 15 -20 15 -42 -1z"/>
<path d="M3901 4751 c-21 -13 2 -61 28 -61 27 0 33 14 20 44 -13 27 -25 32
-48 17z"/>
<path d="M3312 4712 c-9 -6 -10 -16 -3 -34 14 -39 30 -43 41 -12 17 44 -3 68
-38 46z"/>
<path d="M3727 4713 c-4 -3 -7 -19 -7 -35 0 -23 4 -28 25 -28 22 0 25 4 25 35
0 27 -4 35 -18 35 -10 0 -22 -3 -25 -7z"/>
<path d="M4393 4693 c-19 -7 -16 -44 5 -59 23 -18 30 -17 42 6 19 36 -10 69
-47 53z"/>
<path d="M4882 4683 c-18 -7 -43 -59 -36 -77 14 -36 64 1 64 47 0 28 -8 37
-28 30z"/>
<path d="M4050 4659 c-14 -24 2 -49 31 -49 20 0 36 40 24 59 -11 18 -44 12
-55 -10z"/>
<path d="M4736 4649 c-14 -20 -13 -23 10 -42 27 -21 27 -21 42 8 12 24 -1 55
-23 55 -8 0 -21 -10 -29 -21z"/>
<path d="M3357 4603 c-13 -12 -7 -40 12 -57 23 -21 41 -13 41 18 0 34 -34 59
-53 39z"/>
<path d="M3938 4564 c-11 -22 -10 -28 7 -40 27 -20 45 -17 45 7 0 25 -17 59
-31 59 -5 0 -15 -12 -21 -26z"/>
<path d="M3812 4536 c-13 -30 6 -63 32 -53 19 7 21 48 4 65 -17 17 -23 15 -36
-12z"/>
<path d="M4800 4552 c-36 -13 -53 -68 -25 -79 21 -8 55 25 55 53 0 26 -9 34
-30 26z"/>
<path d="M3713 4515 c-26 -11 -29 -24 -10 -48 16 -22 57 -12 57 15 0 30 -21
45 -47 33z"/>
<path d="M4072 4498 c-6 -6 -12 -20 -12 -31 0 -15 6 -18 33 -15 27 2 32 7 32
28 0 28 -32 39 -53 18z"/>
<path d="M4300 4481 c0 -26 4 -31 25 -31 14 0 29 8 35 21 14 25 12 27 -28 35
-31 6 -32 5 -32 -25z"/>
<path d="M3442 4488 c-18 -18 -14 -46 7 -58 31 -16 41 -12 41 18 0 26 -15 52
-30 52 -3 0 -11 -5 -18 -12z"/>
<path d="M4648 4486 c-20 -14 -24 -51 -8 -61 17 -10 50 5 50 24 0 9 -6 25 -12
34 -11 13 -16 14 -30 3z"/>
<path d="M4710 4404 c0 -31 3 -35 21 -32 12 2 27 11 33 21 9 15 7 21 -8 33
-33 24 -46 17 -46 -22z"/>
<path d="M3935 4390 c-9 -18 -14 -34 -11 -38 3 -3 6 -2 6 3 0 4 9 0 20 -10 18
-16 20 -16 20 -2 0 10 5 17 10 17 17 0 11 26 -9 44 -19 17 -20 17 -36 -14z"/>
<path d="M4546 4364 c-7 -19 -8 -17 21 -33 19 -10 24 -8 33 9 6 11 8 25 5 30
-10 16 -52 11 -59 -6z"/>
<path d="M3520 4350 c-18 -11 -2 -63 21 -68 20 -4 32 34 18 60 -11 20 -18 22
-39 8z"/>
<path d="M3816 4326 c-6 -25 1 -56 13 -56 3 0 15 7 25 15 18 13 18 16 2 40
-21 31 -32 32 -40 1z"/>
<path d="M4086 4334 c-9 -8 -16 -24 -16 -35 0 -15 7 -19 35 -19 28 0 35 4 35
19 0 17 -24 51 -35 51 -2 0 -11 -7 -19 -16z"/>
<path d="M4633 4340 c-26 -10 -22 -35 8 -50 15 -8 22 -5 35 14 25 40 6 56 -43
36z"/>
<path d="M4255 4280 c-8 -37 0 -50 31 -50 20 0 24 5 24 28 0 54 -44 71 -55 22z"/>
<path d="M3587 4273 c-13 -12 -7 -40 12 -57 18 -16 20 -16 41 11 20 26 20 28
4 40 -19 14 -47 17 -57 6z"/>
<path d="M4437 4243 c-11 -3 -16 -10 -13 -20 3 -8 6 -20 6 -28 0 -7 9 -15 19
-18 21 -5 31 10 31 49 0 24 -7 26 -43 17z"/>
<path d="M3732 4178 c-7 -7 -12 -15 -12 -19 0 -12 31 -39 45 -39 21 0 26 42 7
56 -21 17 -25 17 -40 2z"/>
<path d="M4359 4159 c-9 -17 -8 -25 4 -36 20 -21 37 -8 37 28 0 35 -24 39 -41
8z"/>
<path d="M4012 4035 c-8 -17 -7 -27 1 -39 11 -15 14 -15 35 -1 17 13 20 20 12
34 -15 29 -36 32 -48 6z"/>
<path d="M3453 33 c-18 -7 -16 -33 2 -33 8 0 15 2 15 4 0 2 3 11 6 20 6 16 0
19 -23 9z"/>
</g>
</svg>
